<mxfile host="65bd71144e">
    <diagram id="8dNxie2aHRrgwTNxGa9v" name="Page-1">
        <mxGraphModel dx="2613" dy="3133" grid="1" gridSize="10" guides="1" tooltips="1" connect="1" arrows="1" fold="1" page="1" pageScale="1" pageWidth="1920" pageHeight="1200" background="none" math="0" shadow="0">
            <root>
                <mxCell id="0"/>
                <mxCell id="1" parent="0"/>
                <mxCell id="2" value="&lt;h1 style=&quot;font-size: 24px;&quot;&gt;Algorithm pipeline: Use output from FAST-LIO2 to generate textured mesh model&amp;nbsp;&lt;/h1&gt;" style="text;html=1;strokeColor=none;fillColor=none;spacing=5;spacingTop=-20;whiteSpace=wrap;overflow=hidden;rounded=0;fontSize=24;" parent="1" vertex="1">
                    <mxGeometry x="60" y="60" width="530" height="120" as="geometry"/>
                </mxCell>
                <mxCell id="11" value="" style="edgeStyle=none;html=1;fontSize=24;" parent="1" source="5" target="10" edge="1">
                    <mxGeometry relative="1" as="geometry"/>
                </mxCell>
                <mxCell id="5" value="1. LO trajectory&lt;br style=&quot;font-size: 24px;&quot;&gt;2. point cloud map in .pcd" style="shape=cylinder3;whiteSpace=wrap;html=1;boundedLbl=1;backgroundOutline=1;size=15;fontSize=24;" parent="1" vertex="1">
                    <mxGeometry x="340" y="240" width="225.53" height="130" as="geometry"/>
                </mxCell>
                <mxCell id="18" style="edgeStyle=none;html=1;fontSize=24;" parent="1" source="7" edge="1">
                    <mxGeometry relative="1" as="geometry">
                        <mxPoint x="950" y="570" as="targetPoint"/>
                        <Array as="points">
                            <mxPoint x="860" y="520"/>
                            <mxPoint x="860" y="570"/>
                        </Array>
                    </mxGeometry>
                </mxCell>
                <mxCell id="7" value="1. VO trajectory&lt;br style=&quot;font-size: 24px;&quot;&gt;2. sequence of panoramic image&amp;nbsp;" style="shape=cylinder3;whiteSpace=wrap;html=1;boundedLbl=1;backgroundOutline=1;size=15;fontSize=24;" parent="1" vertex="1">
                    <mxGeometry x="534.63" y="440" width="235.37" height="160" as="geometry"/>
                </mxCell>
                <mxCell id="15" value="" style="edgeStyle=none;html=1;fontSize=24;" parent="1" source="10" target="14" edge="1">
                    <mxGeometry relative="1" as="geometry"/>
                </mxCell>
                <mxCell id="10" value="Pose graph&amp;nbsp; optimization" style="whiteSpace=wrap;html=1;fontSize=24;" parent="1" vertex="1">
                    <mxGeometry x="610" y="280" width="140" height="60" as="geometry"/>
                </mxCell>
                <mxCell id="17" style="edgeStyle=none;html=1;entryX=0.004;entryY=0.404;entryDx=0;entryDy=0;entryPerimeter=0;exitX=0.5;exitY=1;exitDx=0;exitDy=0;fontSize=24;" parent="1" source="14" target="16" edge="1">
                    <mxGeometry relative="1" as="geometry">
                        <Array as="points">
                            <mxPoint x="860" y="406"/>
                        </Array>
                    </mxGeometry>
                </mxCell>
                <mxCell id="14" value="mesh" style="whiteSpace=wrap;html=1;fontSize=24;" parent="1" vertex="1">
                    <mxGeometry x="800.0049999999999" y="280" width="120" height="60" as="geometry"/>
                </mxCell>
                <mxCell id="23" value="" style="edgeStyle=none;html=1;fontSize=24;" parent="1" source="16" target="22" edge="1">
                    <mxGeometry relative="1" as="geometry"/>
                </mxCell>
                <mxCell id="16" value="&lt;blockquote style=&quot;margin: 0px 0px 0px 40px; border: none; padding: 0px; font-size: 24px;&quot;&gt;Export to OpenMVS&lt;br style=&quot;font-size: 24px;&quot;&gt;Input:&amp;nbsp;&lt;br style=&quot;font-size: 24px;&quot;&gt;1. Camera intrinsic, extrinsic&lt;br style=&quot;font-size: 24px;&quot;&gt;2. Image keyframe, VO trajectory&lt;br style=&quot;font-size: 24px;&quot;&gt;3. Sparse / Dense point&lt;/blockquote&gt;&lt;blockquote style=&quot;margin: 0px 0px 0px 40px; border: none; padding: 0px; font-size: 24px;&quot;&gt;&lt;br style=&quot;font-size: 24px;&quot;&gt;Output:&lt;br style=&quot;font-size: 24px;&quot;&gt;1. for each point, calulate which image view can capture that.&amp;nbsp;&lt;br style=&quot;font-size: 24px;&quot;&gt;2. Scene object&lt;/blockquote&gt;" style="rounded=1;whiteSpace=wrap;html=1;align=left;fontSize=24;" parent="1" vertex="1">
                    <mxGeometry x="960" y="220" width="400" height="460" as="geometry"/>
                </mxCell>
                <mxCell id="25" value="" style="edgeStyle=none;html=1;fontSize=24;" parent="1" source="22" target="24" edge="1">
                    <mxGeometry relative="1" as="geometry"/>
                </mxCell>
                <mxCell id="51" style="edgeStyle=none;html=1;entryX=0;entryY=0.5;entryDx=0;entryDy=0;fontSize=24;" parent="1" source="22" target="35" edge="1">
                    <mxGeometry relative="1" as="geometry">
                        <Array as="points">
                            <mxPoint x="1500" y="610"/>
                        </Array>
                        <mxPoint x="1578" y="760" as="targetPoint"/>
                    </mxGeometry>
                </mxCell>
                <mxCell id="54" style="edgeStyle=none;html=1;entryX=0;entryY=0.5;entryDx=0;entryDy=0;fontSize=24;" parent="1" source="22" target="39" edge="1">
                    <mxGeometry relative="1" as="geometry">
                        <Array as="points">
                            <mxPoint x="1500" y="610"/>
                            <mxPoint x="1500" y="760"/>
                        </Array>
                    </mxGeometry>
                </mxCell>
                <mxCell id="55" style="edgeStyle=none;html=1;entryX=0;entryY=0.5;entryDx=0;entryDy=0;fontSize=24;" parent="1" source="22" target="43" edge="1">
                    <mxGeometry relative="1" as="geometry">
                        <Array as="points">
                            <mxPoint x="1500" y="620"/>
                            <mxPoint x="1500" y="910"/>
                        </Array>
                    </mxGeometry>
                </mxCell>
                <mxCell id="22" value="Reconstruct Mesh" style="whiteSpace=wrap;html=1;align=center;rounded=1;fontSize=24;" parent="1" vertex="1">
                    <mxGeometry x="1400" y="410" width="200" height="80" as="geometry"/>
                </mxCell>
                <mxCell id="27" value="" style="edgeStyle=none;html=1;fontSize=24;" parent="1" source="24" target="26" edge="1">
                    <mxGeometry relative="1" as="geometry"/>
                </mxCell>
                <mxCell id="61" style="edgeStyle=none;html=1;entryX=0;entryY=0.5;entryDx=0;entryDy=0;fontSize=24;exitX=0.5;exitY=0;exitDx=0;exitDy=0;" parent="1" source="24" target="57" edge="1">
                    <mxGeometry relative="1" as="geometry">
                        <Array as="points">
                            <mxPoint x="1818.2" y="15.049999999999997"/>
                        </Array>
                        <mxPoint x="1818.2" y="502.05" as="sourcePoint"/>
                    </mxGeometry>
                </mxCell>
                <mxCell id="62" style="edgeStyle=none;html=1;entryX=0;entryY=0.5;entryDx=0;entryDy=0;fontSize=24;exitX=0.5;exitY=0;exitDx=0;exitDy=0;" parent="1" source="24" target="59" edge="1">
                    <mxGeometry relative="1" as="geometry">
                        <Array as="points">
                            <mxPoint x="1818.2" y="162.05"/>
                        </Array>
                        <mxPoint x="1818.2" y="502.05" as="sourcePoint"/>
                    </mxGeometry>
                </mxCell>
                <mxCell id="63" style="edgeStyle=none;html=1;entryX=0;entryY=0.5;entryDx=0;entryDy=0;fontSize=24;" parent="1" target="60" edge="1">
                    <mxGeometry relative="1" as="geometry">
                        <Array as="points">
                            <mxPoint x="1818.2" y="315.05"/>
                            <mxPoint x="1860" y="315"/>
                        </Array>
                        <mxPoint x="1820" y="410" as="sourcePoint"/>
                    </mxGeometry>
                </mxCell>
                <mxCell id="81" style="edgeStyle=none;html=1;fontSize=24;" edge="1" parent="1" source="24">
                    <mxGeometry relative="1" as="geometry">
                        <mxPoint x="1830" y="410" as="targetPoint"/>
                    </mxGeometry>
                </mxCell>
                <mxCell id="24" value="RefineMesh" style="whiteSpace=wrap;html=1;align=center;rounded=1;fontSize=24;" parent="1" vertex="1">
                    <mxGeometry x="1690" y="410" width="260" height="80" as="geometry"/>
                </mxCell>
                <mxCell id="65" style="edgeStyle=none;html=1;entryX=0;entryY=0.5;entryDx=0;entryDy=0;fontSize=24;" parent="1" source="26" target="64" edge="1">
                    <mxGeometry relative="1" as="geometry"/>
                </mxCell>
                <mxCell id="26" value="Texture Mesh" style="whiteSpace=wrap;html=1;align=center;rounded=1;fontSize=24;" parent="1" vertex="1">
                    <mxGeometry x="1980" y="410" width="200" height="80" as="geometry"/>
                </mxCell>
                <mxCell id="40" value="" style="edgeStyle=none;html=1;fontSize=24;" parent="1" source="35" target="39" edge="1">
                    <mxGeometry relative="1" as="geometry"/>
                </mxCell>
                <mxCell id="35" value="Delaunary Tetrahedralization&lt;br style=&quot;font-size: 24px;&quot;&gt;" style="rounded=1;whiteSpace=wrap;html=1;fontSize=24;" parent="1" vertex="1">
                    <mxGeometry x="1601.82" y="570" width="208.18" height="80" as="geometry"/>
                </mxCell>
                <mxCell id="42" value="" style="edgeStyle=none;html=1;fontSize=24;" parent="1" source="39" target="41" edge="1">
                    <mxGeometry relative="1" as="geometry"/>
                </mxCell>
                <mxCell id="44" value="" style="edgeStyle=none;html=1;fontSize=24;" parent="1" source="39" target="43" edge="1">
                    <mxGeometry relative="1" as="geometry"/>
                </mxCell>
                <mxCell id="39" value="Weight calculate" style="whiteSpace=wrap;html=1;rounded=1;fontSize=24;" parent="1" vertex="1">
                    <mxGeometry x="1630" y="724.09" width="151.82" height="65.91" as="geometry"/>
                </mxCell>
                <mxCell id="41" value="InfoCells" style="whiteSpace=wrap;html=1;rounded=1;fontSize=24;" parent="1" vertex="1">
                    <mxGeometry x="1818.2" y="724.08" width="161.8" height="65.92" as="geometry"/>
                </mxCell>
                <mxCell id="46" value="" style="edgeStyle=none;html=1;fontSize=24;" parent="1" source="43" target="45" edge="1">
                    <mxGeometry relative="1" as="geometry"/>
                </mxCell>
                <mxCell id="43" value="Extract Surface" style="whiteSpace=wrap;html=1;rounded=1;fontSize=24;" parent="1" vertex="1">
                    <mxGeometry x="1640" y="880.01" width="131.82" height="59.99" as="geometry"/>
                </mxCell>
                <mxCell id="45" value="Graph" style="whiteSpace=wrap;html=1;rounded=1;fontSize=24;" parent="1" vertex="1">
                    <mxGeometry x="1838.2" y="880" width="121.8" height="60" as="geometry"/>
                </mxCell>
                <mxCell id="56" value="" style="edgeStyle=none;html=1;fontSize=24;" parent="1" source="57" target="59" edge="1">
                    <mxGeometry relative="1" as="geometry"/>
                </mxCell>
                <mxCell id="57" value="光度一致性" style="rounded=1;whiteSpace=wrap;html=1;fontSize=24;" parent="1" vertex="1">
                    <mxGeometry x="1918.2" y="-30" width="188.18" height="90" as="geometry"/>
                </mxCell>
                <mxCell id="58" value="" style="edgeStyle=none;html=1;fontSize=24;" parent="1" source="59" target="60" edge="1">
                    <mxGeometry relative="1" as="geometry"/>
                </mxCell>
                <mxCell id="59" value="拉普拉斯正则化" style="whiteSpace=wrap;html=1;rounded=1;fontSize=24;" parent="1" vertex="1">
                    <mxGeometry x="1918.2" y="115" width="188.18" height="94.09" as="geometry"/>
                </mxCell>
                <mxCell id="60" value="轮廓一致性" style="whiteSpace=wrap;html=1;rounded=1;fontSize=24;" parent="1" vertex="1">
                    <mxGeometry x="1918.2" y="267.96000000000004" width="188.18" height="94.09" as="geometry"/>
                </mxCell>
                <mxCell id="64" value="" style="shape=image;verticalLabelPosition=bottom;labelBackgroundColor=default;verticalAlign=top;aspect=fixed;imageAspect=0;image=data:image/png,iVBORw0KGgoAAAANSUhEUgAAAy4AAAIkCAYAAAD4X395AAAABGdBTUEAALGPC/xhBQAAAAlwSFlzAAAOwQAADsEBuJFr7QAAf95JREFUeF7t3Ql8FOX9x3Gstlbr2XpW6m29z3iLilfVqliq9aw3VSGKR1UUxbuIMYqKZ8WrIhqjgop/tR6gWGOQW44oKBhAuUTugBy//zzPPDPzzOxsskl2k9ndz/v1+pGdZ87d7Ibnu8/MbhsBAAAAgIQjuAAAAABIPIILAAAAgMQjuAAAAABIPIILAAAAgMQjuAAAAABIPIILAAAAgMQjuAAAAABIPIILAAAAgMQjuAAAAABIPIILAAAAgMQjuAAAAABIPIILAAAAgMQjuAAAAABIPIILAAAAgMQjuAAAAABIPIILAAAAgMQjuAAAAABIPIILAAAAgMQjuAAAAABIPIILAAAAgMQjuAAAAABIPIILAAAAgMQjuAAAgKz79ts6qapaQDWzZs1abh5RAAQXAACQdSq4TJ68XObOFaqJNXFiHcEFsBBcAABA1hFcml8EFyCM4AIAALKO4NL8IrgAYQQXAACQdQSX5hfBBQgjuAAAgKwjuDS/CC5AGMEFAIrQypUrZcWKFVQe1urVq81vMdkILs0vggsQRnABgCKkgsvixYupPCyCS/EUwQUII7gAQBEiuORvEVyKpwguQBjBBQCKUGsGl+ryEimrip+XH1UrFV3KpNpqqy4PT+eyCC7FUwQXIIzgAgBFKOPgMqVCSsur9e3aylIpKSkJVWllbWx7Splt6O3FzfcrNQDo7XepkNpIe7RqK8ukYkr8vMWLq6XMO4aMylneOR51/1LmOfehLNTuLJvB8WWrCC7FUwQXIIzgAgBFyA4uaUdAqsqCQOF0zKvTBBd3G6UmNJhOvLOu3+n3w48aqWjkaIs6huj20lS6YJVunlcpx6PDlRug1GMT2m80eKn7ZT9OqrwQ47U3KjA1XEkMLvPmzZPx48ebKVe9wWXoY1Jy+UCZFGqfK/0uL5GeQ+y2uBojPUu6Sr+aoG1S/67Suf9ca5lsl9qn9Tt2Krf7c4vgAoQRXACgCHnBxevQpw0Tfuhwlw0tZ4UJ1cH3O3Wq426tp5bT65nlQ8va5XX4re3bIzApISJS6Udc0o+IhEObG6zc41AjLu6+QyM+9v0yt8OniTnr6flqW16Yy24lMbgsWbJE/w67d+/uB5jGB5d6qmagdLaWDwcVFXjCQSZ9qQDSW4bGzquvUsNSSxTBBQgjuABAEdLBxel4q1Oewp33SOnOeYVUONWoERcrLIQDRRAIwteKeB1+dzkdbvz1S8MBKbpc5Jj80uu7AaJUBRJrXspxq/tZkrqcV2WV7vyK4ZHgorbtzA8ClXs/guMy2/dGX1R5IShy/O42THhKs65a5n//+58MHjw4UfXuu+/6x6iqU6dO8t//ftmo4DK0l1rXDRUqmHjb6jnEHYkJpp3l7SAzpLeU9BrjbMNezgsZJnD0d5Zxft53W7AdL/i4+3VLb1ttzws3/u244BJzXKpdHZtp87djt5njtu/jY1XeNsNFcAHCCC4AUIQyOlXMKXdExulAO+HD62RFS60bChCmY+6GAqcj7oQeL4DY68VXqfS+0w4C4eCiyxqJCQJTtExw0uGs2j8Gb31ve+nX9yoIYHpaBxzreE2ICcKZF8Ccn9ZoUVBuMFGPmX48rBCmKvS70MGoQt6P/H5OO+00ad++feIq/HsskQcfrGjkiIs3GhIzghIZcbFPK1PBw/4ZXl5t0zkeHWzUPG8f7nLhkRtrng4s6n54y5rteOVvz5Ra3t9fNODE7XNS6n2MKYILEEZwAYAilOk1LqXlqrzOuTlVzOr4e5U64mKWUyMS9rI6SLjToUCiOumRTrxXKcHFqlBgipYfOOxRDLfc7bmjMemDi5ofCR/2cYaO2Vs2TXBRy1r7V49j6uOeepxBQFO33WNN8qliqi688EL54IMPmnCqmN3B90YzzHRKcHFKj7T0NuuERz/cUu3RIBEOEfZoi1vesu72wqEmNWiE1lfHF3ec9miLV6ERot7yub28VQQXIIzgAgBFKNMRF7tz7ocTPeLhdcK8jrUzr8rqnOvQoDrvkWDgrBvsywoOTQwumZWzH3vExQ4RznGqU+DcY1LHa9pTyoQQ+zjjjtlvs4OLdT/NPtT+GhxxiZbatnO8yxIaXC666CL58MMPTUtTrnEJhwpdOpw4nfy4QKCXd343ZvQjNOISWiZ9cAmPuATlto+xRkVigot3bGb5TEdcUsrZzqmP1cTOI7gAYQQXAChC6YOL27FOGQnRP53QoTrjkREX3QFXHUgvrPihRXXc1c8gvPjLpiu9rncswTrxwcXblzfa4S7rhxB/W5HgEqnY0aJQBdvXj4N9vNHg4j823v1324P7XSYV6rZeT2032FawXtCm7os72hIsUxAfh6yCi3U/g9ER9TM8euKGEavNOk0rHFbU+tH1UoOEP0qig0Z4XyrEBCHEWV6Plqj10wUSb72BwXwVaEy7P2KU0hbeL9e4AJkhuABAEbKDS9oyIyullRVWJzzcsVYVHiHw5geddrctMvJiyg4y8eEkXXAJBwM/MPgjHlabc9vu/KeUH1ZS71tQVnDxtu/ftgNI/P3MZvE9LsVTBBcgjOACAEUoo+BSdOUEl4ZGXBJQBJfiKYILEEZwAYAiRHDJ3yK4FE8RXIAwggsAFKF8Di6LFi2KbS+WIrgUTxFcgDCCCwAgL5SVlckGG2wgL730kmlBkhFcml8EFyCM4AIASLxrrrlGdt55ZxkyZIhpQdIRXJpfBBcgjOACAEispUuXyllnnaW/mf2rr74yrcgHBJfmF8EFCCO4AAASqaamRo488kg5++yzZeHChaYV+YLg0vwiuABhBBcAQOIMHjxY/vjHP8q1115rWpBvCC7NL4ILEEZwAQAkSv/+/WX99deX++67z7QgH3nB5dtvf6aaWAQXIIzgAgBIjPvvv1/WW2896devn2lBvlLBZdKkpVQzi+ACBAguAIBEuO6662SHHXaQDz/80LQAABAguAAAWt25554r7dq1kwkTJpgWAADCCC4AgFYzZcoUOfroo+Vvf/ub/PTTT6YVAIBUBBcAQKv45JNPZNddd5WuXbuaFgAA0iO4AABaXEVFhWy00UZyzz33mBYAAOpHcAEAtKgHH3xQ1llnHXnuuedMCwAADSO4AABaTLdu3WS77baT9957z7QAAJAZggsAoEWcf/75csghh8jYsWNNCwAAmSO4AABy6ocffpDjjjtOOnbsKHPmzDGtAAA0DsEFAJAzVVVVsscee0iXLl1MCwAATUNwAQDkxKuvviq/+93v5K677jItAAA0HcEFAJB1ffr0kV/96lfSt29f0wIAQPMQXAAAWdW9e3fZeuut5e233zYtAAA0H8EFAJA1F110kRx44IEycuRI0wIAQHYQXAAAzTZ//nw54YQTpEOHDvpTxAAAyDaCCwCgWUaPHi177723XHbZZaYFAIDsI7gAAJpswIABstlmm8ntt99uWgAAyA2CCwCgSR577DFZc8015cknnzQtAADkDsEFANBoPXr0kK222kreeOMN0wIAQG4RXAAAjdKpUycpKSmRYcOGmRYAAHKP4AIAyMjy5cvlpJNO0jVt2jTTCgBAyyC4AAAa9NVXX8l+++0nl1xyiaxcudK0AgDQcgguAIB6vfvuu7LlllvKLbfcYloAAGh5BBcAQFrqE8PatGkjjz76qGkBAKB1EFwAALHUd7NsscUW8vrrr5sWAABaD8EFAJBCfQv+PvvsI1VVVaYFAIDWRXABAIR06NBBTjjhBJk6dappAQCg9RFcAADad999JwcccIBceOGF+qOPAQBIEoILAEA+/vhjadu2rdx4442mBQCAZCG4AECRe+6552TNNdeUhx56yLQATbN8+Sr5+uulVI4KKHYEFwAoYnfddZdsuumm8sorr5gWoOlUcBk+fKFMmfIzleVSjytQ7AguAFCkunTpInvuuacMHTrUtADN4wWXuXOFymLNnLma4AI4CC4AUIQ6duwoxx13nEyePNm0AM1HcMlNEVwAF8EFAIrI7Nmz5eCDD5bzzjtPlixZYlqB7CC45KYILoCL4AIARWLYsGGyzTbbyPXXX29agOwiuOSmCC6Ai+ACAEVAXXy/zjrryAMPPGBagOwjuOSmCC6Ai+ACAHlGneK1ePFiimpy1dXVmWdTdhFcclMEF8BFcAGAPENwoZpbBJf8KoIL4CK4AECeaa3gUltZKqWVtbHz8rNqpaJLiZSUqCqViilxy4RLPQZlVWa6qiz8eEypkLKcPj7O8ZZXSG3svMYVwSW/iuACuAguAJBnMgsuqlNeJtXqttOhLtWdc6u6qA5wtZRF21PK69A3tGxMx1/vN7NA0LxS99Xej3Os+v65QUPf17jHIObY9PLR5cy2vPlecKkuN49vzDy7LdiWs7wTdkLbVm3W8vax29vxy1nf3YcduiLbStlHar31NcEln4rgArgILgCQZ5Z893rQCY/t5Nohw+mcV6ULLs6yqkNfXq3XczveVuBxqrrc7dxXl5c0crRFHYNaN11H3DvGaMe98VVbWeYGENVh1/cluP/qmN2AYT8mcRUffKL78MKJejzC66YGCbVcSpiJjtKoig1V0bpUbu7k3Tb706Mvwe/LD1LWPtT+o/tTbdkKLurjtW31B5el0u/yEuk5JNI+pLeUXD5QJtltaWuu3ob3uHTuPzdmmdzWpP5d/f271VuGxiyXzSK4AC6CCwDkmekDrwu96x7qGPtlBRArnLhldcwjnWa3U+514k3n2KyvOrzhDptX0fDhhgT/uFSgSAkCWTrtLG50wenAB8HDehysderbdzCSEjxOqcElCDr6thMO7dPE7OX941LbqnffMceaUuqxVcuY3421TkpwiQtE5veYreBy77336k+qmzVrlp5uUnCpp4b2spd3Q0trhBW7dHDpNSZ2Xq6K4AK4CC4AkGeCU8VUpzXoQIfL7dBWqA50o0Zcgp+6k+wHnvC+UsKNXsYpHSTMPLVtbz+6PehYe8ehO9jWtB1w7FENt7OvjsFr8/bvhiR/fa9Tb49+OPchPEKSpkywiGuvbiC4lOr9mfvnVBBc3J9+CIrZvhfw0h5j5DHxH4v6gotzW52mp47L/12a48t2cPGOUwWYGTNmNS641AyUzs66bhgZIz29+6xGYNRIjD2tlo0bmTHbcJf1Rj+cbTnL9nOCj253goYKQd7tlPXMdt1Q4qynRnXsdZzyAlNscIk9Bjd4Rde329zHIny/Z3rbtIrgArgILgCQZ/zgojrBfrCIlHm3vbSyIv0pUmrdyLvyupPrhRln+3o6rjMfU2X9nOWsTnYouOhyQ4bb8Q867EG5gUO1q8519L6F1vG3bQKBv4zqnDtt/rpBh11N6+1GjltX9HH0HgN/vWhwsde3QpRZp77gEg4e7vZ1IHGCYeiYvPLun/97UPfHWz+4/6nBJbIdXc7xO0Hr8UFfSPv27ZtdBx98cGj7Rx/9J/nf/+akdLzdih9xUUFAd+pVUIkEgtCIS8z8aKnl7RBkB4PgdlfpV6N+BgHDOwYdSvT8YJu6dDBxl3eX8e5z6rLeMcQFHP++6mlzDBncL4IL4CK4AECecYNLuEMeLtWZVadLmfl+Jzzo5PrLWh10r1PuBgj1br29fWddryOvOtB+pz5mm16lBJegUkKI3xFMF2zcUBN0GFWp41OPQ0ybOj69XXtkxF4uUtZjkDLPuQ8Njbh4t3VocIKJHXTC27EeYy+4OOuotiDk2BUsV+2EUHd99Zg766h289ipfaacKmZuB8HKLXVMr4yYKYMHD252de0adOKPP/54uf/+h6S6+qfYzneDwUVNm1EWbzoUXNKNuNgjFv66djDxwoq6rU43c25/Zo+QmHLCQzRshEOKFVxSgkbqMYSO3ZRqC7anyhxX5H5Hi+ACuAguAJBnVHBJ7dhHS3X0ox3ZcCdfr2+Ci92pdzvRkREPZzn7Go5g/80NLm5IcjvW7vHF7j+0jl3h+xQKM2bfqkP/klnX79zbZR6D+tpSR1zSBBdTXlt0XjBtBRdToZBjl/UYevt311GPnTtS44/iqN+59/vWoSXYjhdm1DayeapYx44d5bXXXtPTTbnGJTwKocqEC6dDH+78x1/jEixjz28guERGXLwKhRI7KOlgkT64xB1D3HKp99Uu99gm/ZA6j+ACuAguAJBnal+/LtQhDTrowe0guLg/y3THPRoygk6/Fxa8n6qTqzvSXuc90glOrTSBILS/oOwQovdjtlHh79PtlHvbTxu8VJu1j9RTxbzHIdivt36o4oKLN8/avvcYhbcTDS7ePtXxWo+Legzt309KcKl/xMVdxgsu5vFRx+0HU7OsP+1tw3vc3ONU28hWcHn11VfNLVcmwSV43IIOvu7Mm1EHXaHAoNq84BEe2QhfC+Ms09+5rddtKLjY21YVF0rcEKLnm+teVDiJCySh4/SPwVrfKTewxLRF7jfXuADpEVwAII+8//778v3331ud0rgyHVWnk1xhBYSUTnuks+4FCLvTq9uinXpVdpCJm6+qnuCSvTLBxQ8aKiiYTn3M8TUUXIL5VuBQ5d/f1JEU/3b0MXGOKTxKZQechoKLdR9SgpP7+/V/T3bIUvu1jyNNZSu4RPE9LrkpggvgIrgAQJ546qmnZP3115effvrJdG4pqmnFN+fnVxFcABfBBQDyQPfu3WXHHXeUd999N8Nvzqeo9EVwya8iuAAuggsAJNw555wj7dq1kzFjxuhpggvV3CK45FcRXAAXwQUAEuyoo46S008/XWbPnm1aRFasWFFQtWDBAnnllVekU6dO8s9//lNfxxO3HJXdygWCS26K4AK4CC4AkEDTp0+XXXbZRa644grTUniGDx8uF1xwgbRp00Z/pO6QIUPMHOQrgktuiuACuAguAJAwn376qWy44YZy9913m5bC8vLLL8thhx0mG2+8sVx33XVSW1tr5iDfEVxyUwQXwEVwAYAEeeGFF2TdddeVvn37mpbCsHDhQh3E2rZtK3vuuac89thjZg4KCcElN0VwAVwEFwBIiLvuuku23357GTRokGnJfyNHjpQLL7xQnw520kknyXvvvWfmoBARXHJTBBfARXABgAS4+OKL5dBDD5URI0aYlvxWUVEhRxxxhD7l7corr5RJkyaZOShkXnCZM0eoLBbBBXARXACglR177LH64nT1jfj5bNGiRfKvf/1LttlmG9l9993lwQcflNWrV5u5KAYquHz++QIqB0VwAQguANBqfvzxR93B79y5s2nJT6NGjZKLLrpInw52/PHHy5tvvmnmAACQPQQXAGgF6pSw3/72t3LHHXeYlvxTWVmpv2dmgw02kEsvvVTGjx9v5gAAkH0EFwBoYa+++qqsvfba8uSTT5qW/KG+df2ee+7RHyKw2267yb333puzb2EHAMBGcAGAFlReXq6vAXnjjTdMS34YPXq0XHLJJbLmmmvKn/70Jz3aAgBASyK4AEALKS0tlYMOOkiqq6tNS/Kp0SH14QHrrbee/uQz9fHGAAC0BoILALQA9R0mp556al58S/ySJUukV69estNOO8kuu+wid955p8yfP9/MBQCgdRBcACCHli5dKnvttZe+eH3FihWmNZnGjBmjj1Ndf6NGWfr162fmAADQ+gguAJAjEyZMkE033VRuvfVW05JMr732mv4Y49/85jf6W+6rqqrMHAAAkoPgAgA58Pbbb8taa60ljz32mGlJFjUSpD4RbNddd5Wdd95ZbrnlFpk1a5aZCwBA8hBcACDLHn30UWnbtq28/vrrpiU5xo4dK126dJF1111XjjnmGHnmmWfMHAAAko3gAgBZdN1118n+++8vn332mWlJBhWi1AcErLPOOnLBBRfIkCFDzBwAAPIDwQUAsuT000+Xk08+WaZMmWJaWteyZcv098bsscce+hPCbr75Zpk2bZqZCwBAfiG4AEAWlJSUSKdOnRLxLfLjxo2TK6+8UtZff3056qij5PHHHzdzAADIXwQXAGgGNbqyxRZb6NGM1jZw4EDp0KGD/PrXv5bzzjtP3nvvPTMHAID8R3ABgCb66KOPZI011pA+ffqYlpa3fPly6d27t+y9996y4447yk033SSTJ082cwEAKBwEFwBogqefflq23HJLqaysNC0ta/z48XL11VfLRhttJO3bt9efZLZ69WozFwCAwkNwAYBG6tGjh+y7774ydOhQ09Jy3njjDenYsaP+dvu///3v8tZbb5k5AAAUNoILADSCCgsnnniiTJo0ybTk3s8//ywPP/yw7LfffrL99tvLjTfeqEdcAAAoJgQXAMhQu3bt5KKLLpLFixebltyaMGGC/POf/5RNNtlEjjjiCHnkkUf0RxwDAFCMCC4A0IAffvhBttpqK33he0sYNGiQ/k6YX/7yl3LOOefoTwsDAKDYEVwAoB5VVVXyi1/8Qh588EHTkhsrVqzQF9gfeOCBst1228kNN9wgI0eONHMBAADBBQDS6N+/v2y22Wby8ssvm5bsmzhxonTr1k0233xzOfzww/W1LAsWLDBzAQCAh+ACADF69uwpe+21lwwZMsS0ZNe7774rZ511lqy11lpy9tlny+uvv27mAACAOAQXAIj4xz/+IX/605+kpqbGtGTHqlWr5Mknn5RDDjlEtt12W7n++utl2LBhZi4AAKgPwQUALMcdd5ycf/75Mn/+fNPSfF9//bV0795dfv/73+tPJnvooYdk9uzZZi4AAMgEwQUAHCqo7Ljjjvqi+Gx5//335dxzz9UX95955pny2muvmTkAAKCxCC4Ait7o0aP1Rw8/8MADpqXpVq9eLX379tUjK1tvvbX+Hpbq6mozFwAANBXBBUBRGzBggPzud7+TF1980bQ0zTfffCM9evSQP/zhD3LooYdK7969ZcaMGWYuAABoLoILgKKlwsXuu+8uH374oWlpvI8++khfE7PGGmvIGWecIZWVlWYOAADIJoILUKQWLFgh8+b9XLR1772PyhVX3ChjxnwTO7+hqqx8Rzp3vl46djxPysufkKqqL2OXS1eLFq00vwkAmYp7LSWpfvpphTlSALlAcAGKlAouY8cukS+/XFqUNWrUgmbd/xEj5jv1k7ONxbHz66vRoxcTXIAmmD59WexrKhm1hOAC5BjBBShSXnCZO1eoFi6CC9A0Krh89dWy2NdVaxfBBcg9ggtQpAgurVcEF6BpCC5AcSO4AEWK4NJ6RXABmobgAhQ3ggtQpAgurVcEF6BpCC5AcSO4AEWK4NJ6RXABmobgAhQ3ggtCVq1aJcuWLaPyqJqK4NJ6VWzBJe55W4iF3CO4AMWN4IIQFVwWL15M5UktWbLE/OYaj+DSelVswSXuuVtotXTpUnNvkUsEF6C4EVwQ0ujgMqVCSrtUSG3cPCrnRXDJzyK4ZFDqb0t5dfy8BBbBpWUQXIDiRnBBiBdcqstLpWJK8J9ydXmJlFbW+tN2e0lJ+kpdp1rKnPayKrst21UrFV3KpDpyO3qfdHmdI/Uzcuzxx5956ccmxx0vgkt+FsElvuzXqHr9ZPZ3wn69B1VbWZryerYrddvx29FVVRa7DbsqJxBcWgLBBShuBBeE6ODidOLLrA676gCoDnxKR0L9Z96o0RbVMVDbSNdBcENNSUmazkOjSm2rTCrSdV6cQBHq2Dj3o9qZtu9fbNDJsPS2zT4y6nw1+rF0K3fBZbH0u9x6vFT1GhOzXKY1V2+v5xCrbUhvd5vq5+UDZVJo+UxrjPT0j7G3DI1dxqlm7cOrmPvQxCq64GK/MVBPmPdfc2neSCh7x2p3Xi8VMW+cxL7evDcoou3mb1J0G3bpNy+c16f3Job399DejmojuLSMhoOL+zr1f4fNft2rvzH1/G2xiuAC5B7BBSEquFRXqg60Gy7KQqMG7n/y7n/aJnyk6WCoCncg7HWdab1eOKDEdQiyWfWOuPjLOMfexTmOlOPPvHRo8UOIe7+buq2GqjHB5bbbbpOvv/7aTGUWXLLRSffLCypmemiv5m9fbaNz/7mx80LVxOCSjWOMq+IdcUn3evDetEj398N9XXlt+k0U5+9UZn97nHJe5/abMUGZv2Mp7aa8wOL9jPt7Z96gILjkxqOPPirz5883Uw0Fl5+y/3eL4AIkCsEFIasWzzT/ITud/CrVqXfCS+Q/6lLVsTedgFDYCL0rWRaEBPOfvduZcEdCdEdBt5swoUYcvO2ndBCCjoUOFvZykTa1Dx0c9Pxq3Uny5oXLemdXBRdrf6qDE7yTW0+nJqXcTpkX9IIRKrddH6+6n6FQ4xzHcHff9uPoH6falpr2wpV3vOb2jd3eML+5hl155ZV6m16AaUpwUR1579iCwBB+h1OvUzNQOpvpIDBYHQA1X7Wb5fxtqYDhradDjt1pUPuxb3eVJ5/sGjMSZB9PV+lX47RFgot9P/z7aO9bLRuZfluvY+/fzHPK3YZzrM7x9fTanXWmmv1Fq7iDS8wbCP489djZr/dgWS+42AEmWM9dx58X+vuRrtS2g3XtvyOq9Ha8v2nqp/O3UP29KvWDV/C3TO2X4JIbhx9+uBxyyCF+gKk3uEz60P27EjNvUn/1t2Kg+7r1Rnq937dZRy9jPQf817Xzd6Sz9bqujWzbK4ILkHsEF4ToU8Wc/6TDHYO4Sn2HNLbu7O38Z293/q3gosvtrKjOQdDRD5dqV/N1IPE67aZUm9/hj4Qi/x1Wv7PvzI+ejuV1cKzthjtGXmeqgeryjDzjd2jcit4fffx6OdMZswKJfz/U8VjH6G5DHYO7jt6G1Vl64JNZcvvtt2dUJ554YuiYr7jiBhk+/KfY/4BTThWLdgZ04HA78amjHuF3KFVnwJvvLWu3+be9MGPW80Y7QvOdY/GDkQksfmfDTHvrqdv+Nq3gYu/bP1br/rjtboW2Zd0vvU8vMPnruh0cHZScGSpY/fcbb91wqcf94Yefkrvvvrvgq1evXuY1oF6f6UKLU1PU69OZX2Veuzo0OLf914h6M0RtwzwnG3GqWPrTPu3gYi3j/Q3Ux2AHl9T9qQBU5qz7/OczYu8/1bw66KCD/Mf6gAMOkN69X5CamjTB5fPnQ29kqNevWs/7O+K/kWGv4/yj/taF/tao9npe10On2usHRXABco/ggpBVqxaHOga1qnPtTXtldfKrnf/MdVCIBJL0HYXwcnaFO/pWB8WpdMFGtYWOzRpJqS+4qON+X4cAZx1vXmg7pqJBpxEVd7y6TGco+m6y10GKHoNqd+c798n8TvRt53H8dFbTg0uXLtc1GFyCTrtbfkjQpf5Td/8jD3UG9H/4wX502Z18PSoRrON3Fux3QE3ZgaZfL7WO04nQt1OPzQ0Z4ZEQt5zjtIKL15kJytnuG858q8MT3qY3HQSX+PZgvrfuiyO9ZcI1fPh82W23EmnTpo2uW265pWBLPfeC53/wRkXQ5pY6RbXCf004r0fv74zzfFevo5RR3HJn+Zg3FVK27b3+7b8JfjUiuHjrOrf9vzNmO+r1+VzV9Nj7TzWv7OCiqmvXOxs14uK9VkNvNqiK/J3ylgne1PD+tqW+rt/80mwjUgQXIPcILghJ+Thk7z9wv83qUKj/9J3Og9+xV/+hm3nNDS7B7aCjo0cb/H275Xf4rTZdViclOBYvuASdFa9To7dt/ScWVLr70XClDS7mPtmhyL8f6njiwpJqd47HfkzUY9GYa1y8U8W6d+8u48ePb/ypYiZA6E6BDhlBJz74z15V+D/6cJlgYXUu/M6Cvf1QmXVMp8MNT6nb9zoo3k97nn2qWLhzYkp3YtJv050O7ldoG/5xZx5civlTxeJfs06Qr7LCvA4H6vXnlfqgDTPi4rw+9AdppL3Gxf77ol4rZpuR4OIGoeBvQfRNEP1a8wKL9dNexrsf6j5xqlhuqFPF1EjLgw8+KHPmzMnoGhf79e29hvXfDT+42G+4qNdtsEzoda1fzwQXIEkILghZtXye1Rlw/sN3/nMPd77t4KJCSPCfeFyldtwzCy5BB8E9BreTbzrsZttup6GeNmcddSpJcAzWst59MMHFOwZVqhOSetyNr/TBxSnn/tnz7M6cuu3dHzvcBKNbXqercRfne4HF0/hrXKzRDHOuuDvf/Y/fO2bdFho9CQeCaHCwp3XnwlvPDjHO9vxjcToUPeOW9zslMcfjtellrPvhVL379u9H9J1Xext2B4jgEifc4feex+7fD+957z7H079R4M1zXx/RcBL3N8Xdvv86iwQXd3vBurH7tgKLfZzB377gmAguueEFFk/DnyoWfv17f3/069sacQle772ln5kX+hvgVPC3g+ACJAXBBSFxIy72H3JdkY5+UHaQietIeMukm5el8kKBGaVIOX5dzjGY+xbukLidkJwHlywV3+OSn1XMIy71VUp4sP/+qBDvjTw6IT54LaeW+7HJ0b8z9t8np/w3Q2L+Hll/O/RrOO7vYKQILi2j4eDS9FLBxX5TpbFFcAFyj+CCkMadKka1dhFc8rMILoVXfHN+yyC4AMWN4IKQlOBCJboILvlZBJfCK4JLy8hlcGluEVyA3CO4IITgkl9FcMnPIrgUXhFcWgbBBShuBBeEqOCybNmyvK2ZM2fKq6++Kj/++GPs/EKspiK4tF4VW3CJe94WYiH3CC5AcSO4oKDsv//+0rdvXzOF+hBcWq+KLbgA2UJwAYobwQUF49prr5Xzzz/fTKEhBJfWK4IL0DQEF6C4EVxQEN544w3ZZpttnM7gItOChhBcWq8ILkDTEFyA4kZwQd6bP3++bLXVVjJo0CDTgkwQXFqvCC5A0xBcgOJGcEHeO/vss+WGG24wU8gUwaX1iuACNA3BBShuBBfktSeeeEIOOuggM4XG8ILL+PFLi7JGj14o48Y1/f6PGjVfRo6c73RWFsfOr68ILkDTqOAS95pKQhFcgNwjuCBvTZgwQX7xi1/IiBEjTAsaQwWXuXN/Ltq6774n5aqrejgh4tvY+Q3Vq6/+V664orv87W+XyAMP9JWqqvGxy6UrggvQeHGvpSQVwQXILYIL8lb79u2dDuMDZgpovN69e8vuu+8uH374oWlpvI8++kh/mt0aa6whZ5xxhlRWVpo5AAAgmwguyEu33nqrnHrqqWYKaLoBAwbI7373O3nxxRdNS9N888030qNHD/nDH/4ghx56qA5FM2bMMHMBAEBzEVyQd9S745tuuimdQmTN6NGj5Ze//GVWRvBWr16tvwS1Xbt2svXWW8s///lPqa6uNnMBAEBTEVyQd3beeWfp37+/mQKyQ32s9o477pjVT6h7//335dxzz9XXYp155pny2muvmTkAAKCxCC7IK//4xz/ksssuM1NA9h133HH6mhUVZLLl66+/lu7du8vvf/97PRLz0EMPyezZs81cAACQCYIL8ka/fv1k1113lVWrVpkWIDdUQP7Tn/4kNTU1piU71HP3ySeflEMOOUS23XZbuf7662XYsGFmLgAAqA/BBXlh+vTpssEGG+hPcAJaQs+ePWWvvfaSIUOGmJbsevfdd+Wss86StdZaS3+J6uuvv27mAACAOAQX5IWTTz5Zbr/9djMFtAx1LdVmm20mL7/8smnJvokTJ0q3bt1k8803l8MPP1wefvhhWbBggZkLAAA8BBckXllZmRx11FFmCmhZVVVV+uL6Bx980LTkxooVK+TRRx+VAw88ULbbbjv9IQEjR440cwEAAMEFiaY+Rnb99dfX35IPtJYffvhBttpqK7nppptMS24NGjRITj/9dP0Rzeecc44MHDjQzAEAoHgRXJBoJSUl8sQTT5gpoHWpTwS76KKLZPHixaYlt1RgV98Ds8kmm8gRRxwhjzzyiCxbtszMBQCguBBckFjXXHONvmgZSJK///3vcuKJJ8qkSZNMS+79/PPP+tqX/fbbT7bffnu58cYbZfz48WYuAADFgeCCRBowYIA+z3/evHmmBUiOHj16yL777itDhw41LS3njTfekI4dO8raa6+tQ9Rbb71l5gAAUNgILkgcdRqO+qI+zutHkj399NOy5ZZbSmVlpWlpWWrE5eqrr5aNNtpI2rdvry/sX716tZkLAEDhIbggcdR3W6jTxICkU98rtMYaa0ifPn1MS8tbvny59O7dW/bee2/Zcccd9QcITJ482cwFAKBwEFyQKI899pjsv//+ZgpIvilTpsgWW2whN998s2lpPWqUskOHDvLrX/9azjvvPHnvvffMHAAA8h/BBYlRU1OjP/71888/Ny1A/lCfgNepUyepq6szLa1n3LhxcuWVV+qPElffgfT444+bOQAA5C+CCxLjyCOPlHvvvddMAflHfffKySefrEdhkkB9dHJ5ebnssccestNOO+lRoWnTppm5AADkF4ILEkF9StNJJ51kpoD8dd111+nTHT/77DPTkgyvv/66fo2ts846csEFF8iQIUPMHAAA8gPBBa3ugw8+0J/ONHXqVNMC5Df1CV9t27bVYSFpxo4dK126dJF1111XjjnmGHnmmWfMHAAAko3gglb3xz/+UZ5//nkzBRSGt99+W9Zaay39gRNJtHTpUn1q5q677io777yz3HLLLTJr1iwzFwCA5CG4oFWpi5kvueQSMwUUlgkTJsimm24qt956q2lJptdee02OP/54+c1vfiMXXnihVFVVmTkAACQHwQWt5j//+Y++aFhdQAwUKjWysddee8mll14qK1asMK3JNGbMGH2c6lv5jz32WOnXr5+ZAwBA6yO4oFXMnDlTf1Qr3zOBYqEujD/11FOltrbWtCTXkiVLpFevXvqTyHbZZRe58847Zf78+WYuAACtg+CCVqE6cUn4wj6gJZWWlspBBx0k1dXVpiX5Xn31VT36st5668nFF18sI0eONHMAAGhZBBe0OHVBcPv27c0UUFzU96pss8028sYbb5iW/DB69Gh9Pdqaa64pf/rTn6SystLMAQCgZRBc0KK++OIL2WijjfS59ECxUqMY6jqSJ5980rTkj8WLF8s999wj22+/vey22276jYi6ujozFwCA3CG4oEXtt99+0qdPHzMFFK8RI0bIb3/7W7njjjtMS/5Roy5HHXWUbLDBBvqi/vHjx5s5AABkH8EFLebqq6+W008/3UwB+PHHH2X33XeXzp07m5b8NGrUKLnoooukTZs2+mOV33zzTTMHAIDsIbigRQwYMEB23HFHvuAOiKEufu/YsaN8//33piU/LVq0SP71r3/pa3hUIHvwwQdl9erVZi6gTjVcKdXVC6k0BaB+BBfknPqeli233JKLeYF6qE/sOvTQQ/UpZIWgoqJCjjjiCNlwww3lyiuvlEmTJpk5KGYquIwatVjmzFlNRerzzxeYRwlAOgQX5NyZZ54pV1xxhZkCkM5dd92lL3ofNGiQacl/6uOT1bfxq9PI1Meg891Nxc0LLnPnCmXVnDlCcAEyQHBBTj366KNy8MEHmykADXnhhRdk3XXXlb59+5qWwrBw4UK5++67pW3btrLnnnvKY489ZuagmBBc4ovgAmSG4IKcmTx5svz617+WoUOHmhYAmfj000/1KVaqo1+IXn75ZTnssMNk4403luuuu05qa2vNHBQ6gkt8EVyAzBBckDPq/PZC7XgBuTZ9+nTZZZddCvo0y+HDh8sFF1ygTyNTH04wZMgQMweFiuASXwQXIDMEF+TELbfcIieffLKZAtBU6ntS1MeIz54927Qk18qVK2XFihWNrgULFkj//v3lvPPO0xfyv/vuu7HL5WPxqWphBJf4IrgAmSG4IOsGDx6sz2PnU4SA7DjnnHOkXbt2MmbMGNOSTCq4qG/Wp4IiuIQRXOKL4AJkhuCCrNtpp50K7sJioLV1795dfxeSGo1IKoJLahFcwggu8UVwATJDcEFWXXLJJfqjTwFk31NPPSXrr7++PPvss6YlWQguqUVwCSO4xBfBBcgMwQVZoz7GdZ999tHfng0gN95//31Zb7315J577jEtyZFZcKmWspIyqY62V5VJWVVqW0mXCqn129Ksq9tLpCSuQusvluryUqmYYtZR86ZUSGnsNrNTBJcwgkt8EVyAzBBckBVznb+8qjNVSF+cBySV+qhxdUrmVVddZVqSIRxcaqWiixcSohUTQKLBRYWWuCASKiuExM53yg4uKqSUV5t9mODitUcCTqhSAlTmVezBJfqFo/UHlyXS7/IS6TnEbpur2/zf5+UDZZJqH9I79Hvu3H+uv2x4/Wh52+sq/Wri5rdOEVyAzBBckBV//vOf5YYbbjBTAHJNhQT1keNnnnmm/Pjjj6a1ddnBpbpcdQ7TBZeYihtx0aMhQec0XHbwySy46NGWqnq26Yea7FWxB5ebbrpJzj//fD/ANDW4eG1De5nbKrh4IWbuGOmpg0gGwUWt12tM/LxWLIILkBmCC5qtV69ecuyxx5opAC1JBZcjjzxSxo0bZ1pajxdcaitLnRDgBJG44OKNpDiBolotFw0PpnSICY2Q2KVGc9zgovcVs364nON4R+3XPh4n7JRX+Nvx26xl1LZLn3lGB53Sylp3GTtM6VCk1vG2ERyXuj3whm76y0TVJy0Wa6nrHr3fw1/+8hd58snn5Ysv5sd23hsOLtbtBoOL03Z5b6fM70otWzNQOnu/Oy+82CM3us1so7+7rN6WvZ7Z56T+XaVnr2Bd75hVsPLa3FGgcJu3XLQILkBmCC5oltGjR8smm2wiI0aMMC0AWto111wjO++8s3zwwQempXXo4KKCiQ4b4RAQLmde9NSrZoy4qIDhrVtbWRa7z+pKFZSsec62yyqrI8HFhBUdUoJAEtdmL+vPN8frha5uj47QX6zZvn37oq2DDz449Hvr0OEM+ewzt0OfWg2dKmad3tXgqWJemPG24d5WgcMLFDqQ+OHHG80x+wuFot4y1Czjra9+hsKPczvUFlnenXa3Nd2a7xXBBcgMwQXNsu+++8oDDzxgpgC0locfflg23HBD/SEZrWXlyvlOxz7oTOqKvTYk+8ElaHdCTHl4FMYbLbFDjVqnrMoeIfHKHJtzPMF64WBib1uHNNXurFOhL/x3168oL5E+wzhVTJ0qph6nAw44QB566CGZMePHZpwqZkKFCgehEZe4ZcOBwzvFLBQkIuFHVef+k8LHYI+2eGVCSjQAve2dxmb2qcoebXGrq3w7M7yMKoILkBmCC5pMXRh81llnmSkAre3NN9+UddZZR8rKykxLywpfnK9GJxoacXF+eqeCZTG4eOFBBaPgU8Ts4KKOTa1vB5dgHXd79nrxIy5Bqe04+zb3xV2/TEY4twkuN+nAokKF0txrXPzAko3gEhlxSd2GqvB2vIrbzhdOW/0jLumL4AJkhuCCJnnrrbdkl112kRkzZpgWAEnw5Zdfyvbbby/XXnutaWk56YOLum1dJ2KmQxfYR4JLOIykL7WOWtYdPfHanf2ai/DD21TBxV3ObY8EF/96Gvu2HVycaec4g/2nOX4ncJWZ5Ys9uEyfPt3ccmUSXILHNxgBCdrM6V/ZCC5OqWl/23p70eDiVGhkxt1mfABy1/WWdefHtVnbNkVwATJDcEGjqc7JFltsIf379zctAJJEfZfSYYcdJuecc44sWNBynaFwcKmnzKlVDZ0q5ocXK0TosFFuresHCTckqXDinirmTrufbuYGDB1cnAoClDffrej+s1HFHlyi+B6X+CK4AJkhuKDRzjjjDLniiivMFICkOv300+Xoo4+Wmpoa05JbGQeXIiqCSxjBJb4ILkBmCC5olMcff1zatWsnq1atMi0AkuzKK6+U3XbbTX80ba4RXFKL4BJGcIkvgguQGYILMjZ16lT97fgfffSRaQGQD+6991757W9/m/PTOwkuqUVwCSO4xBfBBcgMwQUZO/zww+X22283UwDySUVFhfzqV7+S+++/37QALY/gEl8EFyAzBBdk5Oabb9bfegwgfw0bNky22WYbuf76600L0LIILvFFcAEyQ3BBg4YOHSrbbrutTJgwwbQAyFezZ8/W32Z+3nnnyZIlS0wr0DIILvFFcAEyQ3BBg3bccUd54oknzBSAQtCxY0c57rjjZPLkyaYFyD2CS3wRXIDMEFxQr4svvlg6depkpgAUki5dusiee+6pR1WBlkBwiS+CC5AZggvSeumll2T//feXefPmmRYAheauu+6STTfdVF555RXTAuSOF1ymTv2ZihTBBWgYwQWx5s+fL7/5zW9k4MCBpgVAoXruuedkzTXXlIceesi0ALmhgktNzVIqTQGoH8EFsU488US58cYbzRSAQvfxxx9L27Zted0DABKL4IIUZWVlcsIJJ5gpAMXiu+++kwMOOEAuvPBCWb58uWkFACAZCC4IGTdunGyxxRby+eefmxYAxaZDhw76zYupU6eaFgAAWh/BBSH77LOP3HfffWYKQLG67LLL9N+Dqqoq0wIAQOsiuMDXtWtX+fvf/26mABS722+/XY/Avv7666YFAIDWQ3CB9s4778gee+zBqSEAQp588klp06aNPProo6YFAIDWQXCBtvnmm8vzzz9vpgAg8O6778qWW24pt9xyi2kBAKDlEVwgf/vb3+Tqq682UwCQ6quvvpL99ttPLrnkElm5cqVpBQCg5RBcitxTTz0l7du3l2XLlpkWAIinPiL5pJNO0jVt2jTTCgBAyyC4FLHp06fLRhttJO+9955pAYCGderUSUpKSmTYsGGmBQCA3CO4FLF27drJXXfdZaYAIHM9evSQrbbaSt544w3TAgBAbhFcitStt94qp59+upkCgMZ77LHHZM0119SfPAYAQK4RXIqQ+lb8HXfcUcaMGWNaAKBpBgwYIJtttpn+zhcAAHKJ4FKEdthhB3n88cfNFAA0z+jRo2XvvffW37YPAECuEFyKzMUXX0znAkDWzZ8/X0444QTp0KGD/PDDD6YVAIDsIbgUkcrKSjn44INl1qxZpgUAsuuiiy6SAw88UEaOHGlaAADIDoJLkViyZImsu+66OrwAQC51795dtt56a3n77bdNCwAAzUdwKRLqFI6bb77ZTAFAbvXp00d+9atfSd++fU0LAADNQ3ApAr1795aTTz7ZTAFAy3j11Vfld7/7Hd8XBQDICoJLgaupqZG2bdvK0KFDTQsAtJyqqirZY489pEuXLqYFAICmIbgUOPURpWrEBQBai/qUseOOO046duwoc+bMMa0AADQOwaWAXXvttXLBBReYKQBoXeeff74ccsghMnbsWNMCAEDmCC4F6oMPPpB99tlHJk2aZFoAoPV169ZNtttuO3nvvfdMCwAAmSG4FKjNNttMXnjhBTMFAMnx4IMPyjrrrCPPPfecaQEAoGEElwJ0xhlnyD//+U8zBQDJU1FRIRtttJHcc889pgUAgPoRXArMs88+K8cee6wsWrTItABAMn3yySey6667SteuXU0LAADpEVwKyMyZM2WTTTaRd955x7QAQLJNmTJFjj76aPnb3/4mP/30k2kFACAVwaWAHHbYYZx2ASAvnXvuudKuXTuZMGGCaQEAIIzgUiDuvPNOOfPMM80UAOSf6667TnbYYQf58MMPTQsAAAGCSwEYPny47LLLLjJixAjTAgD56f7775f11ltP+vXrZ1pQaCZPrqPSFID6EVwKwPbbby9PPfWUmQKA/Na/f39Zf/315b777jMtKCRVVQvkm2+WU5EaM2axeYQApENwyXOXXnqplJaWmikAKAyDBw+WP/7xj3LttdeaFhQKFVzmzhXKqhkzVhJcgAwQXPLYgAED9MWsM2bMMC0AUDhqamrkyCOPlLPPPlsWLlxoWpHvCC6pRXABMkNwyVPLly/X54Gr8AIAhWrp0qVy1llnSfv27eWrr74yrchnBJfUIrgAmSG45KkTTzxRbrvtNjMFAIXtmmuukZ133lmGDBliWpCvCC6pRXABMkNwyUN9+vSRU089VVatWmVaAKDwlZWVyQYbbCAvvfSSaUE+IrikFsEFyAzBJc9MnjxZtt12Wxk6dKhpAYDcUqemLl68OBG1YIHq9M6V+fPnx87P11qxYoV5tAsfwSW1CC5AZggueWavvfbSIy4A0FKSFFwKtQguxV0EFyAzBJc8csMNN8gll1xipgCgZRBccl8El+IugguQGYJLnlAXpO6///4yYcIE0wIALSOj4DKlQkq7VEhtpL22skwqpoTbqstLpLSyNmirKpOS8urQMsVWBJfiLoILkBmCS57YdNNNuSAVQKtQwUWFjZISUzEBRVdMeIkGl9B20lW67RdKxQS1Qg0u6r5FpQ0uM2qlc8zzoXP/ufHL56gm9e8a2n/PIfHLZVJqW5kcP8EFyAzBJQ+cc8450q1bNzMFAC3LCy5lVVbnO8OKG3GprSwNdQxD5Xfoq6WspEyqrfUyraYea7aqwf0XUXB5+umn5f7775eZM2ealkxGXOZKv8u7Sr+auHnpK9OQ0FDp4NJrjDtdM9AJU71laGQZt8ZIz7Tz3CK4ANlFcEm4F154QY4//niZN2+eaQGAlpUy4hJzWpcfRpx56UdVSnWIUcvGduzViI3Ztr0N97SyWqnoEt6ODgBeuPFu659mOTVyEwoJXhhyt1VW6ezPWU4fi71eyv2z963K7FMdb7Qtun+nLeW+qGW6lPrrqrZCDi7effcCTGODy9BeweOnRz90mDDzvdufqZ/ecipMhEOF2oZa1w0lA53tO8upcKLXN+tdPlAmOcvGBpchvf1j8Jazj8sLJ9E2HVyc++K1pRu9IbgAmSG4JNiPP/4oW2yxhbz//vumBQBanhtcTMdcd/5NcNDTVlnBw6tsjbiERjHsU9L8oJBm2XqCi39KWuQUt9D6utTywX3Wxx+5n2od77ode/24Zd3gEt73tTfcIO3bty+4OuSQQ0K/X3WtZmOCS3jEwgojfuAIAk7aZZ0KBRd/nfAy3vruMsExh8OGOjavLXV9P/DEtanwE5nvFcEFyAzBJcEOP/xwue+++8wUALSO8MX54U58qHIWXKIjHqrC8+yL/TMNLqFlQtsOby/lPvtBR20vdR17/6khyKmYY3pv5EgZPHhwwdUtt9ziPz7q/zQ13ZjgYo9guBUEFT3PCgJe8HCn6xtxsUdTItt35sUFkOiyccHF24e9XuiY1DYuHygzrPleEVyAzBBcEuqee+6Rc88910wBQOsJBxc7UETKCy7OzzLTic/JiItValulldWhYJE2uKjjiwsufhAx0ykVDi7eKEqwn3B4svefdsQlcj+nFvCpYkcddZT07dtX6urqdFvTR1ysMqMXdlhIH1yCUZJwKAkHD69Sg0twPO468cEldb3IMRFcgGYjuCTQ6NGjZY899pBRo0aZFgBoPdFrXEId/php+1PBwsHF7eCHgkpsuYHF32fM6Ibapw4F3r70vk248EdQ1LS1nhM+YoOLPk4rTKWEmOhxm0Bl78e5n/56of2H19XhpoiCy3PPPecHFk/jrnFxQ4f3+OkQoK838QKDFSSsURE1HYzWOOEhNrg4ZV+7YraZLoB4y/Sz5vv70Ne9pB4rwQXILoJLAm233Xby7LPPmikAaF3hEZd6KtQhdyt1xCXoyNvBQQUPb5QmeaWOORhxyUXxPS7FXQQXIDMEl4Tp0qWLXHXVVWYKAFpfxsGlYIvgkk0El9QiuACZIbgkyKBBg+TII4+U2tpa0wIArY/gkvsiuBR3EVyAzBBcEmLVqlWy0UYbyVtvvWVaACAZCC65L4JLcRfBBcgMwSUhOnToIHfddZeZAoDk+Pnnn6kcF8GluIvgAmSG4JIAjz/+uJx22mmybNky0wIAQGEiuKQWwQXIDMGllU2dOlV22GEH+eyzz0wLAACFi+CSWgQXIDMEl1a277776hEXAACKAcEltQguQGYILq3o5ptvlssuu8xMAQBQ+AguqUVwATJDcGkln376qRx00EHy9ddfmxYAAAofwSW1CC5AZggurWTTTTeVyspKMwUAQHFQwaW6mooWwQVoWMEFl59+WiHff78s0VVe/oz07ft67Lym1syZy2XhwuL5OE0AQH5atYpKVwDqVzDBZcmSVTJmzCIZO3aJ1NQsK7qaOLFORo1aJF99tdQ8IgAAAEDhKJjgMm7cYpk0aVnsuaPFVOPGLZXaWr4PBgAAAIWlIILL8uWr5IsvFsZ25Iut1AV+o0dzniwAAAAKS0EEl4UL3U/jiOvIF1vNnr1ahg1baB4ZAAAAoDAQXAqsCC4AAAAoRASXAiuCCwAAAAoRwaXAiuACAACAQkRwKbAiuAAAAKAQEVwKrAguAAAAKEQElwIrggsAAAAKUcEHl9qhlVJSUhKprtKvJnXZ3NZc6ddroEzypmsGSs/+cyPL1FNDektJrzHx86wiuAAAAKAQFc+IixMUOl9uBYcMa2ivEuk5JH5e42qM9LQC06T+XaWkMcdDcAEAAEARK9rgogKJNwKjg4kKBiW9Zaia793WP81yat1QeFBBRC0/V/pd7myjv7P90LbMet7yav/OdGc9yuKu4+/PzPP34x+D26bXUdOXd/WXc7ejjiNcBBcAAAAUoqIMLmq0I+j4ewHEue2HBTPtVGjEpZ7g4geOmIDkhZnOTrjpqec56zo/+/VSIzDW/p3yji1lpEcHl/A+5njzrCK4AAAAoBAVZXCxR1vc8k7hckOIPZqRaXAJLRPatrs9FUjUMkNVWOmvQoxpe8MabfHK7MM9TnNsMfueqW+Hi+ACAACAQsSIi1Vu+xgniATXoqQNLmp7ccElMuLillrGbFOvZ4eR10MjLinlbY/gAgAAgCJWpNe4mNO7zAiHN/oROhXLDhd6OTWtAoNZT19vEhNcnNLb8pdT27RPB3OW9z5dzA4l3vJmOXtUSIcsggsAAACKWPEElyIpggsAAAAKEcGlwIrgAgAAgEJEcCmwIrgAAACgEBFcCqwILgAAAChEBJcCK4ILAAAAChHBpcCK4AIAAIBCRHApsCK4AAAAoBARXAqsCC4AAAAoRAURXFasWC2ff74gtiNfbDVt2god4gAAAIBCUhDBRZk8eanU1NTJnDnxHfpiqO+/XyWjRi2W2bN/No8KAAAAUBgKJrisXu2GFzXyMnr04rypzz6bHdve2Bo1apG+7zNmLDOPCAAAAFA4Cia4eFauFFm0aGVe1Jw5i6VTpyvl1lvviZ3fmFq82LnjAAC0oGXLVsn8+SuoVqqff15tfhNAcSi44JJvvvvuOznooIPkrrvuMi0AACTb8uWrZMKEJTJ8+EIZO3YJ1UqlPoznm2/qzG8FKHwElwQYMWKE7LDDDvLvf//btAAAkFwTJiyVr79eFnu9JdVyNWfOahk/fqlMncpp4igOBJeEeO+992TDDTeUN954w7QAAJA8dXWrZMSIRbEdaarla9YsvgYBxYPgkiAvvviirL322vL555+bFgAAkmXevBUybtyS2E401TqlTtlbvpzrXVD4CC4J8/DDD8vWW28tU6ZMMS0AACQHwSV5RXBBsSC4JNCtt94qBxxwgCxdutS0AACQDASX5BXBBcWC4JJQXbp0kVNOOcVMAUBuLF++nMqT+vnnZHy5MMEleUVwQbEguCTYGWecIZ06dTJTAJB9qkO8ePFiKg+K4EKlK4ILigXBJcHmOn+Njj76aLn55ptNCwBkV9aDS1WZlFVVS1mXCql1pmsrS53pmOWSWvr47bZaqSh370toOVVTKqS0vNpqc+53aDq7RXCh0hXBBcWC4JJwNTU1stdee+mL9gEg2zIOLimd9PhQUl1eJtWqs9/F+1kiJSVelUrFlDTrxoUAfz2nupRKqT3tVUpQqCdo6DLbTRswvGO3ptNsr7ayzL8/upzQU1pZG1qmurwkJrjFBBx1/0si+3Xus719gguVrgguKBYElzzw6aefyu9//3upqKgwLQCQHUFwUR16u+McKT9YRAKFV2qExVmmzHTcVTApdTrefrhQ65tRGDW/ujzcKY8LRqriAo63j/iKhiVVzr6Gq2BgblvhKbSct38dQKpjtqPKXT+6rjpGFVLsNi/EpIaXSHBR991aL11NnpcvwWWu9Ls8OO7O/efGLJPlqhkonb3H6vKBMilumSbWpP5dpaTXGKttjPQs6S1DrWUyriG9s358qgguKBYElzwxcOBA+dWvfiVDhgwxLQDQfG5w8Tr7aYKL05H3OqE6oIRCTnC7trLC+RkzYqG2bYWWlPDjBZt6g0tcYIqEH13O/uoZcbEDU3jEJBIm/HLarWP31rEDlXs7sn7KKWd2xe0r7v555R5za424lJeXyw8//GCmGgouC3VoyWZYUcGh/u25Qamn899j6rxsVCSoqPARCjLpq+Fjz04RXFAsCC55pG/fvrLZZpvJxIkTTQsANI8KLm5nXHWcGx5xSRml8OtSubmTe7usXAUdpzPvhATd6Xa2X+q06VEF1WG3T6nyRlD8UYdwGAkFF93ZD4JREDzq6/S7Ix+px+2smxJc3jcBzjqGSKDygk80uLijS9Z6Orh4x+W0V9UzqqK37ywbCndBeftsreBy8cUX6+P0Aky9wWXKF9I5dkRBdf67Sr/+Tqdf/awRGdoreAy80GG36Q6/PZLihYeY0RW1XkpAiBuFidueE0Q69x/oHJ/b3nOIOlbvtrsttX33tgpJ7vHrAGOW84KMOzoz0B1xuu2R8L7Mvv3jtNe37ofXFuzPa+stM9R6MUVwQbEguOSZXr16yZ577ik//vijaQGApmvUqWJO58kPHGoUxurQu1XthAHv9Kj4zrrq7OtTqrxOujcy4QcEd4TG20/GwSVNpz8akkqtcJFuxMVutwOKKvcaHrc9er9Coz3e/dLrWIFGV7CvUJu1vXC567/55pty++23t3gdd9xxoeO54Ya7ZNSo+bEd6Lmj/y/NaIQJA1YHPwgaMade6U6+21bfsvY8r9PvTqdfzis/7OgAYZaN3vYCj3dbHZf909qWCho6uJhgFrdff9q6fynz9LQ5/sh+0hXBBcWC4JKHrr/+ejn22GPNFAA0XSbBxe+kO53t6HUcQZXKM894nXmn064766md8bIqp3NfqUZuVDiwOvqRkQ173+Hg4vw0IaUxIy7eehXOcanREbVeg8FFHVMoENmhKTzi4ocb734UcHC5+uoeMnLkT7Ed6AZHXEyH3h5ZcMud53b8vTa3Yx/q0OsOv72eU6GgZEZEPku3nDqOoM0PLt427LASCg3udnv2MseiA461bbMtffzW8YTDiDVt79NUusfEv8+R5e0iuKBYEFzy1EUXXSTnnnuumQKApmn8xfmRjroJBNHRDtVZd08Vi3TG/A6721FP6fBb21CVElzUSI/pyIeDRwNV5YQWZ1l9obw6lc055ur6goseLfIeD/dY7eNPG1xM2W1ecPFGa+x9BWXtI6Xc9Vv7VLFu3brJl19+2cRrXMLBJdqh12UHBR0MYoJLZCQltbxTueKX80ZGvFOwUkJE2uDiHkcoTFjzvNLLZBJcdBgJH1902WipY/96evw8gguKBcElT6n/wNQ361977bWmBQAaL11wUR3v0MX6dnCZUqsDgNup9pZRoxF2Z9spr3Nun67llWrT171ERyPCFQoFOrSo/Zl9RbfvH2MwMhLdtz364d7HyPGqbTi3U443UtF1o8HF3o/3WAXLRIKLvl/BttLVuO+XmN9ay1KBZezYsWYqk08VC49quEEgHFzC1254QcdqM9eJ6JDhjTg4padDox1u598erfA7/zHLBW3OsajrbdSxZRhc4oOM2b5pjwaX6LHb4SR1/ZjHxFpf3YcZ3nYjRXBBsSC45LHp06fLIYccIvfee69pAYDGCYJLPWU61qoznxpYvJGCIOR4IyEpwUCVdwG833GPCTx6Oe+0NBUAzD7szr7eT6mU9r4z1O4FBjvwhEOEHVxSR1zSXcMSKmc5e/v+bRN69DL+KJS6f8E+7X0F00554SUyehWM0vA9LlT6IrigWBBc8tyoUaNkp512kueee860AEDmMgouVCKK4EKlK4ILigXBpQC8//77svHGG8s777xjWgAgMwSX/CmCC5WuCC4oFgSXAvHSSy/J+uuvLyNHjjQtANAwgkv+FMGFSlcEFxQLgksB6dOnjz5tTF37AgCZUMGlrq4usbVgwQIZPXq0/N///Z/+8t24ZYqlCC5UuiK4oFgQXArMbbfdJu3atUvMf3AA0FT9+vWTXXbZRTp06CBffPGFaUVrI7gkrwguKBYElwJUWloqp512mpkCgPwyefJkufDCC2WzzTaThx9+2LQiKQguySuCC4oFwaVAnXXWWdKlSxczBQD54fHHH5e2bdvK2WefLRMmTDCtSBKCS/KK4IJiQXApUAsXLpRjjz1W7rjjDtMCAMmlPtpdjRRvt9128vTTT5tWJNGSJStlxIhFsR1oquVr9uzVUl29wPx2gMJGcClg6nSLffbZR5544gnTAgDJc9999+mPdO/UqZNMnTrVtCLJ1IjLN98sj+1IUy1bEyfWOb+LOvObAQobwaXAVVVV6dMuBgwYYFoAIBmGDh0qf/rTn2T33XeXl19+2bQiHyxZskrGjl0so0cvlgkT6mT8+Dr9k2qZch/vpTJq1CKpqVkiq1aZXwxQ4AguReDNN9+UNm3ayP/+9z/TAgCtZ8WKFXLrrbfK2muvLVdddZXMmTPHzEG+WbhwpcyevZxqpVq8eKX5TQDFgeBSJJ555hk98jJp0iTTAgAtT30fy6GHHioHHnigvPXWW6YVAICGEVyKSFlZmZSUlOgvdAOAljRv3jy59tprZa211pLu3bvL0qVLzRwAADJDcCkyN9xwg/z5z382UwCQe6+88orsvffectRRR8lHH31kWgEAaByCSxG6+OKL5aKLLjJTAJAb3333nfzjH/+QDTbYQP71r3+ZVgAAmobgUqQ6dOggN954o5kCgOxS38Wy4447ysknnyyff/65aQUAoOkILkVq9uzZcthhh0nv3r1NCwA03/jx4+Wss86SLbfcUh588EHTCgBA8xFciti4ceNk5513lv79+5sWAGg6FVRUYDnzzDPlyy+/NK0AAGQHwaXIDR48WH73u9/JBx98YFoAoHHUqWDqlLAddthBnnrqKdMKAEB2EVygP/Fnk002kbFjx5oWAMjM3XffLRtuuKH+0I9vv/3WtAIAkH0EF2iPPvqo7L777jJz5kzTAgDpqVFa9fHGe+21l7z44oumFQCA3CG4wHfHHXfI0UcfLatXrzYtABC2aNEi6datm/4iySuvvFJmzZpl5gAAkFsEF4SojsjZZ59tpgAgMGDAADnooIPk4IMPloEDB5pWAABaBsEFKVRwufrqq80UgGL3ww8/SGlpqay99tr6+58WL15s5gAA0HIILkhRV1cnxx13nNxzzz2mBUCx+s9//iN77LGHHHPMMfL++++bVgAAWh7BBbFqa2tl33331d9+DaD4fP3113LBBRfIxhtvLHfeeadpBQCg9RBckNbw4cPlD3/4g7z11lumBUAxeOyxx2S77baTU045RT777DPTCgBA6yK4oF7vvPOOtGnTRqqrq00LgEI1cuRIOf3006Vt27Zy//33m1YAAJKB4IIGqXPct99+e5kyZYppAVBo7r33Xtl8883lrLPOkjFjxphWAACSg+CCjJSXl8shhxwiS5YsMS0ACsHHH38sJ554ovzxj3+UJ554wrQCAJA8BBdkTH0M6l/+8hczBSCfLV++XHr06CHrrbeeXHzxxTJ58mQzBwCAZCK4oFE6deokl112mZkCkI8GDRokRx55pOyzzz7ywgsvmFYAAJKN4IJGU6Mut956q5kCkC/mzp0r11xzjayxxhpy5ZVX6i+WBAAgXxBc0Gg//fSTtGvXTh555BHTAiDpXn75Zdl///3lsMMOk9dff920AgCQPwguaBL15XS77LKLvPLKK6YFQBJNnTpVn965zjrrSLdu3WThwoVmDgAA+YXggib79NNP9Xe8DBkyxLQASJKnnnpKdt11VznuuOPkvffeM60AAOQngguaZcCAATq8TJgwwbQAaG1ffvml/P3vf5dNNtlE7rjjDlm1apWZAwBA/iK4oNn+/e9/y7777qsv/AXQunr37i3bbLON/hANNSoKAEChILggK+6++2454YQTzBSAllZVVSUdO3aUrbfeWn9hLAAAhYbggqy56qqr5IILLjBTAFrC6tWr9RsH6rSwc845R0aNGmXmAABQWAguyKpzzz1Xrr/+ejMFIJf++9//yvHHH68vwH/sscdMK9Ayvv9+mYwdu1i++GIh1Ur15ZeLZe7cn81vBCh8BBdk1cqVK3VH6r777jMtALJNfaRx9+7d9Ucc/+Mf/9AfTw60pG+/rXM6zUtk2rQVMmvWaqqV6rvvVsioUYtl5szl5jcDFDaCC7JOfRt3SUmJPP/886YFQLa89tpr+gtgeY2htSxdukpGjFgkc+aIqM9koVq3ZsxYKcOG8f1MKA4EF+TE2LFj9ScbvfPOO6YFQHPMmDFDX0e2xhpr6J9qGmgNc+b8LOPHL43tRFOtUypIqkAJFDqCC3Lmgw8+0J2sESNGmBYATfGf//xHf+T4EUccIa+++qppBVrH7NnLZcKEutgONNU6pU4XW7JkpfkNAYWL4IKceumll2SXXXaRadOmmRYAmfrqq6+kU6dOst566+lrWubPn2/mAK2H4JK8IrigWBBckHMPP/ywHHnkkbJ8ORcPApl6/PHHZeedd9bfj5SEUy7VB29Quat8QnBJXhFcUCwILmgRt9xyi5xxxhlmCkA6w4cPl7PPPls222wz/f0sK1asMHNaV11dnSxevJjKQeXbmzoEl+QVwQXFguCCFnPZZZfJlVdeaaYARKlvvG/btq389a9/lU8++cS0JgPBJXdFcKGaWwQXFAuCC1qU6pDdeeedZgqAMnjwYDn11FNlu+22k969e5vWZGm14FJVJqWVtcH0lAop7VIhtfYyjajaylIpq4qf1+hyji28rVqp6FIm1fYyGRTBhWpuEVxQLAguaFHqP2n1yUhPPPGEaQGKlwoDKshvvPHGct555yX6E/iaElxUSCgpievIV0tZSYn+LprYKq/2l60uj1nfCQz+Muq2v64TSsrVPq1tqbKDjgo+Zt3q8shyTvlBxFoubaUEF7fNDlruY5C6H7uqpxNcqOYVwQXFguCCFjdlyhTZbbfd5PXXXzctQPEZNGiQHHvssbL77rvLk08+aVqTq65ullR08TrbpVIxJdJhj5QKBboDrwJASnhxgku6UZNQYKiWCr2NWqkNBRSr9HaC7fkjKn6AMPP0cYTXdUNH3LGokZPwsrH32QsuMdvWFRd8YgJR0kdcvvzyS3PL1XBwmSv9Lrceh8sHyiTVPqR3cDuu1PxeY+LnRWpS/67+svq22Vfn/nNTlm1WNXTMjS73sek5xExnafsEFxQLggtaxbBhw/R3vHz66aemBSgOc+bMkW7dusnaa6+tr/uqqakxc5Kt7vsP/Q63HkVINxphAkZ4JMIdYQlGItxpv2MbLX8/FTrwuPuriJyG5YQLp80NHOHgkrI9L5ioY1Pb9kKNOdbwciq0hEOK2qY9iqIqNFqjjzc4hugokR+m1HQeBpeOHTvKjTfe6AeY+oPLgnDH3K5cBJeagdK5pLcMjVkmK5Xr4JKlIrigWBBc0GrUO85t2rSRr7/+2rQAhe2VV16RQw45RA488EB54YUXTGt+sE8Vi+vIq9KdeafTHzv64Jfq1DcQXMwIjRcOvH3FBoDQaEeZVHjLeOHEDxSp+yxzAkZwP9Ryz8gz6vhTRlusskKHfhycMKVCTnW5HXaCEOMtl+/Bxbv/KnSPHPlN+uDyzf+kc7qOfigEjJGe/uPaVfo5+V3P99uC0ZOhvVLbghEXtR2zvrcfVfa2vDBkt5njUNvp2V+FH9XubGeIdds7ppj7Yx+TCiH2CJB7TCZMpRyHFVx06PLuk7PO5b2dMstax+ev72xzlNl/tAguKBYEF7SqZ599Vg466CC+WA8F7dtvv5UrrrhC1lprLbn22mvz8gtZg+CiAkD01K805YSH8MiLV+GOfbTsEYvqSnu5YL10QUGFhKCjZ8oLLt4+IyMv7rbsbVv3L3QfnGX80FGtR2bKqtzTykpVCDLzdFBxjjs0bQeX0PE523/kEf0mTlJLnc5oP56dO98oY8YsjO1Azx3+mtWBDzr4uqNuhQDV7p/W5bWrn6HOfySQWKMrqUFB7ccsr5azwobaV3iEIwgPejt2SLBvq+3HBBc1LzglzQspQVjx58ceR3jEJdiWfX/VMs7tz4L7621rqtlWtAguKBYEF7S6srIy6dChg5kCCosK53vvvbe0b98+r6/r8oKLGgWJDyNuxQYHr7zg4IWIlE68G0b84KAChplnj7rY025ZocQrE0rCyzghQY2m6FEhZx9pg4t9TJHyw4ga3bFDjfeJYqnHkhJc/PDjVr6MuKjn8FNPPSXTpy9q1IiLHxz8EGA65l4o8Tr4oeASrKdDhP87iAsuMdvxl3fLDxJWm7dtL4SEtukdS0xwUcdlb9sLTGp9N5iYsBF7HJPqCS5mPbOPnkOsNoILoBFckAjXXXeddOrUyUwB+W/s2LFy0UUXyQYbbKC/gHXevHlmTn7SwUUFiUinu94KjVZY5XXenZ9lVrhwA4QXACLreGXCTHi7DYUOEyj0dTLOtLNstQoT+lQxNXISDhyxn2QWqeoq5/ij9y/22AojuPz73/+WpUuX6ulMrnHxwoCq1OBitall7JDghxEzAqFGHbzgoINABsHF+2nPc/4JwpLadtODi71OuNzt+ttIexyZBhfnthW2/McrpgguKBYEFyTGBRdcIDfddJOZAvLXI488IjvuuKOcdNJJ8u6775rW/KYvzjcdKLfc0RF3BCRNRz9NcPFHbWJHXNKEEKetQk3reeb0LD/0OOv465v9OPsOjbj4gcFd1psX7CO4D/UGFzt4hO6f2W6X1Mcj34PLkiVLzC1Xw58qZjrwfnkdcrtjby9j5utg4rV54cft6Ou2XgODTr/p0HfuP9TaTjCKo0OI127CQ9DWW/qZkGKHED0/Lrj423fXHWofk1N2iJnU39m2N5LkbdNbN3QcwShN+uAS3o/aN9e4oNgRXJAoJ554YmK/gA9oSFVVlZx55pmy5ZZbyj333JP4DmljZPI9Lt5pXPVW+fvWp4HFrxs+xUuVG1SiIUiv0+lmudRbx4x4xFVZPydkOIEkCBVu0AgHDzuMxW9Hlb+OCS5u+LHDiglS5S+5Pxuo54d9bx7l/MD3uLRGuSNG730TN4/gguJBcEGiqD/OBxxwgLz44oumBUi+VatW6Wu1VGD529/+JkOHDjVzCkcmwYVqWuVbwCW4tFRFRq680aCYIrigWBBckDgTJ07Un2Tz/vvvmxYguT744AM5+eSTZYcddpCHHnrItBYegkvuiuBCNbcILigWBBck0ieffKK/oHLMmDGmBUgW9RHet912m2y44YZy4YUXyogRI8ycwkRwyV0RXKjmFsEFxYLggsR69dVXZa+99pIffvjBtADJ8Oabb8pRRx2ln599+/Y1rYVt9erV+pS44cOH60+Y6tKli34MtthiCznyyCPlhhtukIqKCv2FsmpZqnGVTwguySuCC4oFwQWJ9vjjj8txxx2nO0xAa5s+fbr+6G71RZKq415TU2PmFCZ1//7zn/9I165ddUjZZJNN5Pe//73+AIIHH3xQfxgBr83iQ3BJXhFcUCwILki8O++8U84991wzBbSOl156SQ466CA5+OCDpX///qa1cMyaNUveeustufXWW/X3dqiPc/7lL38pRx99tD4l7v/+7/+cDpLTQ0LRI7gkrwguKBYEF+SFK664Qq6++mozBbQcdeqTGl1Ze+219WhLbW2tmZO/1DUV6pPPHnjgAf0lmfvvv7++f3vuuaeUlpZKv379ZNKkSWZpIOzHH1fIl18uje1AU61Tw4cvkmXLGP1E4SO4IG+o01N69uxppoDcU9ev7LHHHnLMMcfIG2+8YVrzz7hx4+SZZ56Ra665Ro499ljZfPPN9bUpZ5xxhvTp00eGDRtmlgQatmzZaqmuXijff78ythNNtWx9990KGTlykfntAIWN4IK88fPPP+vz7IvlYmi0nlGjRskFF1wgG2+8sT5N6scffzRzkk9dh/P666/LHXfcIaeffrrsvPPO+poc9dpRp4Gpb/L/6aefzNJA08yYsUy++GKRTJ68XHecqdapSZOWSVXVApk3b4X5zQCFjeCCvKI6ZeodcPWpTkAuPPzww7LddtvJKaeckvjvElqyZIl89NFH+vtjOnXqpK/BWXfddfVrpHPnzvq6nG+//dYsDWTXTz+tkG++qZMJE5ZQrVRTp9ZxbQuKCsEFeUe9G66+4+Xzzz83LciGBQtWyPjxS4q6Pv10urz88udOGPhWvvxyUewyTa1Fi5rfuVDP/eeff15fa3P88cfrT/hSp32pkRUVuNRHFQMAUKgILshL//3vf3V44d3k7FHBZezYJVJbu4LKco0evbjRwWXKlCn6upq7775bX9+12267yS9+8Qv9nSk9evTQr4GFCxeapQEAKHwEF+Qt9clH7dq10988jebzgkvcxZ9U86qh4KK+hf/jjz+WRx55RC677DI59NBDZb311tNh5fLLL5cXX3xRpk6dapYGAKA4EVyQ13r37i1//etfzRSag+CSu4oGlzFjxujg3a1bN/nzn/8sbdu2lU033VROO+00/cWOI0aMMEsCAAAPwQV5r3v37vpdaTQPwSV3NXz4T/Loo8/IOeeco78rpU2bNnLEEUfIzTffrD/li1FDAAAaRnBBQVCfqKQ+6hVNR3DJXQ0fPl9uueVf8sILL8h3331nHnEAANAYBBckwurVq5tdF154oTz99NOx81qq8hnBJXfVlIvzAQBAGMEFiVBXV6dPl8nnUl+Qmc8ILrkrggsAAM1HcEEiEFxaH8Eld0VwAQCg+QguSIScBJcpFVJaXm21VUtZSZlU28tksQguVLoiuAAA0HwEFySCF1xqK0ulrEoFgVqpKK+Q2kg4iK2qMr1OdXmJWdet2soyqZhiLadKhZku3nZVkCmRElOl5WVSak27VepswzmWLtH2SDnbXEhwodIUwQUAgOYjuCAR3OCiAoI3ItK44FJaWevcjqxfqUZbaqW2ygkrcWHDjL5Ul6tw4qzjj9A4gcaEG3eevd24URt3+XwLLt9//7255cokuAztZT9+vWVozDKtVeFjS9YxElwAAGg+ggsSQQcXJ4Ckdjyt0qFChYiYeXap0OGEFR1G1Dad6QovnJiwUV0ehI9QcEnZXji4qFGd1Pn5GVyuuOIKue+++/wA01BwUcGgc/+5sfNyX2OkZ6YhZEhvKek1Jn5ePaXuX88h8fOaWwQXAACaj+CCRKirq5EyHQK8cOGEhdgRF3v0w5Q/4hK0qVPOdLDwrnEJLeONqIRDUFll/SMuZSq0dCn1TzVT+3C3mb/BxbvvKsBMmTKrnuAyvd7gYI92uJ3/udLv8t7S02/31lXtXltX6Vej2lQocW73dwKH+vnZQOlstuWtZ2/fC0+p+zQVCi4x+1PzvePxbuufZrnLB8qk0Da80ORuq2d/9/j0Pu316glLBBcAAJqP4IJEqJtQGQkf9QUX01FUpUKEf4qXmheEn1oniAQBxw0fajq4jsatTEdcdHBJme9UuTPPOY5LL79cfyN6vtROO+0Uuh9nnnmRVFenGVGZOko6qw69mZ7Uv6teR4UIdTsYiYl08k2g8EYzQqMaNU4A0NtU6zjHENPxV8u72w6PuMTv06xnhY74/Zll9P0O1gstW09w0cFGtdvbM+v3G2HWjxTBBQCA5iO4IBEyOVUs9aJ9b2TE/Vntj4BEQog16hKaNuUHF78tGHFxp4PQ4wen0Dbyf8TlqquuckLLl40acfHCg+qwe9txS41sqE6+N6LiLTvJGv3wSm1TBYNgWTcoBMvEBZf4fZr1/dBhj7Z45W3DnReEn8yDS2iZ0LZLpPd/F5h1wkVwAQCg+QguSITUj0O2A4pdVqhQ4UTfNmEiFDZiyoSZ6GllfnBJE5zKqrzgYvbjz/PCTP4GFxVYhg0bpqczucbFHhXxgkt49MOruODihhy/4+9XOLgEy9jhIhxc4vdpygod8fvz1h8TOsa0wUWNrMQFl8iIS31FcAEAoPkILkiETIOLe11JtR8gdAgJjaS4IeN97xoXEzAq9LQbNPQF9taIiXfBfRBo6htxcSt8DU1+BhcvsHga/lQxt+MePK5epz/c7gaK+OASHU1xQ0A4uAQjGU6buu7FhAMdnFS7no7bp7V+aLQkWE7tTx1L6HQvb9/2fmus9Zz7ERtcnNLb8pcbKFNNe7QILgAANB/BBYkw+5NHgw5g2rpUbu4UEyBMyPA/8SvlVLDUURY37Nwpvf2RGid8pOzPVPn7kZGWmMrD4BLF97jkrgguAAA0H8EFiZA64pJ/xTfnU+mK4AIAQPMRXJAIBJfWR3DJXRFcAABoPoILEoHg0voILrkrggsAAM1HcEEirFy5siAqnxFcclcEFwAAmo/gAkAjuOSuRo5cIIMGfShz5swxjzYAAGgsggsAjeCSu/r887lyxRXXy0477SS/+c1v5IQTTpB//etf8sknn8jq1avNbwAAANSH4AJAI7jkrrxTxdS1XOr7c55++mm5+uqr5eijj5ZNN91UttlmGznvvPPk3//+t0ycONH8RgAAgI3gAkAjuOSu6rvG5YcffpD//ve/cv/998uFF14o++23n/zyl7+U/fffX6699loZMGCAzJ492ywNAEDxIrgA0LzgMnPmKirL1diL89WoyyuvvCI9evSQv/zlL7L99tvLeuutJyeeeKLcc8898umnn8qKFSvM0gAAFAeCCwBNBZfhwxcVdVVVzZMhQ37QP+PmN6ea86li6hPrqqqq9KlkV155pbRv315++9vfynbbbSfnn3++9O3bVyZMmGCWBgCgMBFcAMCiQsC6664r3bp1kxkzZpjW5FGfUPbOO+9IWVmZvj5mn332kV/84hdy4IEHyj//+U8ZOHCgPg0NaAlz5/4stbXLZMqUOirHNW3aMlmwgI9Xb4z581fI998v148dlVl9//0y+emn5I3sE1wAIGL58uX6FK3DDjtMKioqTGvyTZo0SV566SXp3r27nHLKKbLtttvKBhtsICeddJL06tVLf4rZsmXLzNJAdnz11VJ9OuTXXy9znoPLqRxXTc0yPYr73Xe8ljMxYcIS/fycOLHOea4uozIs9XiNGrVYRoxYZB7JZCC4AEAar7/+uqy55pr69Kyvv/7atOYX9Slmjz/+uHTp0kUOP/xw2XDDDWWHHXbQHwSgRpe+/PJLsyTQeOpd7DFj+FCPlq7Zs1fr8KJGEpDenDk/y8iRi2MfQyqzmjhxqUyZkpyQTHABgAZcdNFF+lSsZ555xrTkr/nz5+tPMVMX+Z9zzjmy5557Sps2beTggw+W66+/Xoe16dOnm6WB+k2cuMTp1Pwc2+Ghcls1NXX69Dykp0YDeX42r374YZUTkheaR7T1EVwAIAODBw/W37ly8cUXy6hRo0xrYZgyZYo+JU5d1/PnP/9Z/vCHP+iRGXW6mTrFTN33JUuWmKWBwNixi52guzK2w0Pltr75ZrlTdeY3gTjjxi2RadNWxD5+VOZVVbXAPKKtj+ACAI2gLnxX34Dfp08f01KYVDh78skn5bLLLpNDDz1U1l9/fdlxxx316JP6dLPRo0ebJVHMCC6tVwSXhhFcslMEFwDIY2PGjJGdd95ZzjzzTPnf//5nWgubGnH56KOP9AiMut+77babPsXskEMOkeuuu04qKyvlu+++M0ujWBBcWq8ILg0juGSnCC4AUAD+9a9/yVZbbaU78+qTyApZXV2dDi92LVq0SH766Sf90czqo5fVtTHTpk2TmTNnOv/ZzdXX0yxevDhlPSpc+fzcIbi0XmUzuMQ9L5NSzfmyXYJLdorgAgAFQnXU1ajDySefrC96L1QquKgQQmW/CC5UUyqbwSXueZmUIri0fhFcAKDAqI8c3mijjaRHjx4yb94801o4sh9caqWiS6lUTImbZ1VVmZRW1gbTUyqktEuF1NrLNKJqK0ulrCp+XqPLObbwttR9KpNqe5kMiuBCNaWyGlw+f0BKIq+r6vIMXp8tUASX1i+CCwAUIBVY1Jc9HnXUUTJgwADTWhgyCy6q414iJSVpKho4QqGkWsqsZb326vKYIOCsV1JeHdz213NCidPZCqZN2ftVwcesW10eWc4pP4hYy6WtlODittlBSwWl6D6iVT2d4EI1vrI+4qKe8yVlUhH7nA1CTDj8O6/5cvX6cl6/1uss9bXlrR9eLlzu34DQGxVOEVxavwguAFDA1EcL//KXv5Rrr71WamtrTWt+q6ubZYWSdKMK9Y04BB2WuMBQWlnhhA4vUASdnArViZlSK7WhgGKV3mawbb9T5QcIM093ysLrup2vuI5UXACLeffZCy4x29YVF3xiAlGhjrhM6t9VSnqNiZ3XtBojPUu6Sr8a77b3WPeWobHLN7XmSr/LS6TnkLh5TawhvaXk8oEySU/b96PplatTxeJGJWsrnUATF1yc53OZ/yaD9RqJviac11h1JBCF9qGXd/92qL8PdnjJNLisXr3a3ArUF1z089M6nvp+39l/LrvPMX//3nMj9DxpYtUMlM5mG9k6boILABQ41Rk977zz5MADD5R+/fqZ1vxlj7joUYTY0YhMR1zc5XTHRQUSvS0nQKif1ohFrRNmVEfG3V9FJBR57/Sq2+Hgkna/3r68fajplOXUsYVDitpm9F3gUPjyjt/sJzpKFO3o5Wtwqa6uljvuuMPpLH9jWlovuAztVSKd+8+NWSYblevgkp3KZnCpvOoQ/zkaer6acoOL8xy3Xy/O8zj0XPdfy87t0PPcfW2o4FJWZd9W88zfDO81akq/jk1bpsFFfcLjXXfdJd9++61pySC4eM9P1dnPegCur8LPMfV81rezHFxi5zehCC4AUCTef/992XjjjeXyyy+XiRMnmtb8Ew0u0Y68Ww0EFz1qEen8eOV0gFRw0YHAdHi8cBAEmZgAEHpn1z3NRS/jByAvUKTut8zZZ3A/1HLPyDNOaCmt7z74nTHzODhhSoWc8PUA3j6D5VKO28xTlU/BxXscvADT+OBij5QEow6q4+ZtWwcS3ZH02rwOZRBc4rdtv4tttp1uO07Hrp+3T2c7/v71NtMEF3tbumMYHjlRx5Ry7F4H0u+QmmM07Wqdnr2ceWZ5d5/2Y1Qi9/zfgvBxmMr2iIt6vannaej5aip2xMV5Llfo5Zznu/Wa9ebFjbiEgss7kWUiVeq8FtXfjKmLMw8u3rp3mQDT+OAS8/xUvztn2g8WZr7+XUennY0Fz0Hr93l5b6dMu/U8cOdbtyPBxX5dpN9WsA1vWd0eOe7OzvPMe156od/evlpnptlvtAguAFBkrrrqKtl99931lzrmIy+4qI5JfGhRpYJLulPFwp2f1Ao6P3bHqbrSfic2CATpgoJa1/+P2Cs9L1gmOvLibsvedvhd5KATFxyjuq1GZsqq3LBWqkKQffzOcYemvW1EO3RO2Hr+tdekffv2ia/DDz/cOm63Bg2a0KjgojpKXqfJ66R9ERtCggrWSQ0K+jjMumo5t3PnlOqIWh3A1O1YHcHQbbV9u1PplZoXvCPvhRTvZzA/frlQh9Q6ttBjpJZxbtuPkbr9zBfutqKlgkvPns/p71Nqbqnr89zndZrXkH2NitdmveairxHvTQd7fXX9WeqIS8N12mmnxR5ztDbYYIPIPktkwIAxjTpVzH7s7d+Z99zyfnrbiE6Hfp+hMOQ9b9VzK3iOufsOntP2PoPnlppnP7+i24rZb+S4Y59/dpt57rn7Si2CCwAUoeHDh8sOO+ygTyH74gunN5JHUk4V80JAqLzgYnVuTKlOih9cYjrveh0vFHijEipgmGXsURd72i23MxQ6Hn/ExV7GCSH6tJRSZ//OPtMGF/vYIuWHETW6Y4ca675HjiUluHj309TUqVNl8ODBia9///vfocdCjSL+73/q+3syDS5BR0tPmw7U25HOn1uqgxbsKwgH1vqm3M6Z3RH0yuvoBW3BdrxwEdcRdLcVOibdCbW37ZS+b876phOot51uubiOo3M71Dk17SrIeW3qvtUXXP73vymxv6vG1sKFC/VzU12vEg4ibnmvXfVacQOIN8953leGn8+q3OWcgKJvq9FUdz37cXG34QZ/u90v8zpSX/gbd8zRUp/saK/fuXNnGTp0RmYjLrrin5+hAGBup44WutP2csHzzH6+ecvYzzHz3I08T9zt2qX2kW5bDRx3KJiYbVjLEVwAAGmp02y23XZbeeCBB0xL8oU+VUx1vmODi9dpd35anXOvI+SPkpgOkjffHeGw1onp3Ptlwky4Y9VQ6PC2r66TcaadZfU7vvpUMTVyEg4c0WtU4qq6yjm+0GiMU7HH1nBwybdTxdTzd/LkybqtsaeKhTp2prNU/3Jup67h4BLZdmRe6nYaGVwinU+79PH720izXCOCS6jT6kxPUfNiKtuninnhJH1wcUNKaH6V85pSr2m9TNDuvRlQoUKL/+aAmhe8ztxtO9v0r1WzK2hvzDUu6jG78847ncfFvQ4r41PFTIWeQ1ZnPuW5ZXf6rWk7dAbLhJ8T7rYizzHv+WE9T0LPDb/ituX+TPc80vuw7ktoG6pd/41MfV3ZRXABgCKnrnc54IAD5K9//asMGeL8z5JwdXXjQ6MoXgdFdVa8TxlTt91RDqdzYi3rLq/eWTWBIG1wcTo5enm3kxMKIU5np0JN606P+y5tMKLi7c/rHDkVHXHxA4O7rDcv2EcQVuoNLnbwCAUXs119Xn54/VBHL8+DixdYPA0GF/3YmvI7cV6b1wFzO3HecroDZneo+gedOdURU+u9bW871CEzbU75HTY9bW/H7vyp216nLRxc/O07FT4mVUHnUW/D7gDHLmeOTS1ndSxjg0to/Za6xmWYHyhCz1dT/mhpaL77OrSP1RslUUElfK1YOLhU+9vLbnCxPzhCaWxwCT+Hgt+xHRC8+6R+b9Hp8HPZe17ZzzdvW9HnmL2sM62PK+Z1Ebstaz2vrNdL+uCSug7XuAAA6tWnTx/ZbLPN9MWkSe7AhkZc0lRsh9+MQujyOuyq827/h+mPiIQ79EG5HaTUzpQTEjrdLJc629BBxN5XpMr6qdNV1HzvGN2gEQ4ebudKbzeyvl3+Oia4uOHHvu/utkvKX3J/NlDPD/vePMr5p77gQmWhnA7n+c9Ojp2X1eDy+QN+mI9//gdvCvjBxbze7NelN88bYYn+9IKL+nhzd38x4ccrE4L4HpeWKDfM1MbOI7gAACzTpk2T448/Xtfbb79tWpMlk+BCNa3yZcQlDsEl+xUeqeoqb38Tv1y2TxXLZtmBxR15KdOf+JcaTLI34hKH4FJPqRE+6/fhj/zFFMEFAJDixRdflN/85jdy0003yY8//mhak4HgkrsiuFBNqSQHl2wWwaX1i+ACAIilPpb07LPPlnbt2skrr7xiWlsfwSV3RXChmlIEl4YRXLJTBBcAQL3UKWPrr7++dO3aVWpra01r6/n555+pHFa+Iri0XmUzuMQ9J5NSBJfWL4ILAKBB6p340tJS2XfffeXZZ581rUByEFxar7IZXAoVwSU7RXABAGTs448/lm222UYuueQSmTBhgmkFWh/BpfWK4NIwgkt2iuACAGi0Hj16yM477yyPPPKIaQFalwou06YRXFqjJk8muDSE4JKdIrgAAJpk+PDh+tSxs846S7744gvTCrQO1XFWHei4zg6V25owoU5mzszfD3ZoCVOm1MlXXy2LffyozGrq1J/1GxRJQXABgDzUu3dvadu2rdx7772mBWh5S5as1O/Gfvvtz7GdHir7NWeOyNdfL5NRoxbJ6tXmF4FYK1asNs/P5TJ79urYx5OKL/V4qcdtxIhFMn9+0z8gIdsILgCQpyZOnCjHHHOMnHLKKTJkyBDTCrSsBQtWypgxi+XzzxfKsGFUruvzzxfIhAlLpK5ulfkNoD5Ll67Sj1d19QIdYqjMSj3X1Kl2s2Yl61MPCS4AkOfUJ45tvPHGctttt8myZctMK9Cy1Lv/6h1uKrcFFDOCCwAUgGnTpsnf/vY3Ofroo2XQoEGmFQCAwkFwAYACor5tv02bNnLdddfJjz/+aFoBAMh/BBcAKDDz5s2Tyy67TA466CCpqKgwrQAA5DeCCwAUqLffflu22mor6dy5s3z33XemFQCA/ERwAYACtnz5crnppptkzz33lKefftq0AgCQfwguAFAEPv74Yx1ezj//fJkwYYJpBQAgfxBcAKCI9OrVS7bffnt5+OGHTQsAAPmB4AIARWb48OFy5JFHymmnnSZffPGFaQUAINkILgBQpPr06SObb7659OzZ07QAAJBcBBcAKGITJ06Ujh07ygknnCCDBw82rQAAJA/BBQAgzz77rP7iyptvvlmWLVtmWgEASA6CCwBAmzZtmlxyySVy+OGHy6BBg0wrAADJQHABAIS88sorevTl6quvlrlz55pWAABaF8EFAJBi3rx5cs0118h+++0nL7/8smkFAKD1EFwAAGm9/fbbsuuuu0qnTp3ku+++M60AALQ8ggsAoF7Lly+XHj16yC677CJPP/20aQUAoGURXAAAGfn444/lsMMOk7PPPlsmTJhgWgEAaBkEFwBAo/Tq1Uv+8Ic/yEMPPWRaAADIPYILAKDRhg8fLqeccop06NBBhg0bZloBAMgdggsAoMn69OmjPzq5Z8+epgUAgNwguAAAmmXixIly7rnnyjHHHCODBw82rQAAZBfBBQCQFc8++6ysscYacvPNN0tdXZ1pBQAgOwguAICsmTZtmlx66aVy8MEHy1tvvWVaAQBoPoILACDrXnnlFdlpp53kqquukrlz55pWAACajuACAMiJefPmyTXXXCN77bWXvPzyy6YVAICmIbgAAHLq7bffloMOOkg6deokU6dONa0AADQOwQUAkHPLly+XHj16yA477CB9+/Y1rQAAZI7gAgBoMR9//LEce+yxctZZZ8n48eNNKwAADSO4AABaXK9evWSLLbaQhx56yLSgGKxeLbJo0UpZuJCK1pIlK82jBCAdggsAoFUMHz5cTj31VDnllFNk2LBhphWFasaMZVJVtUBGjVosY8ZQ0Ro5cpHzOlgoc+euMI8YgCiCCwCgVfXp00d/cWXPnj1NCwrNrFk/6875Dz+scjrmQqWp2toVOryoERgAqQguAIBWN3HiRDn33HPl6KOPlo8++si0olCMHbtYpk1bGdtZp8I1efJy+eabOvPIAbARXAAAifHss89KmzZtpHv37lJXR+etUKhRhNmzV8d21KlwTZu2QsaNW2IeOQA2ggsAIFGmTZsml156qRx44IHy1ltvmVbkM4JL5kVwAdIjuAAAEumVV16RPffcU6666iqnQ+f06JC3CC6ZF8EFSI/gAgDIGvVFk9mshQsXyocffqhPIRs3blzsMkkuuAgumRfBBUiP4AIAyJolS5bI4sWLKae4RidAcMm8CC5AegQXAEDWtFZwqS4vlYopwXRtZamUVtaGlmnpIrgECC6ZF8EFSI/gAgDImsyDS7WUdamQWnW7qkzKqqLz46u2sswJKLVS0cUOKs62yqtDy6mqLi/xt6uCTElJiSlnf868YNqU2oZzLCntkQqO1TqOKRVS6t0fUwSXAMEl8yK4AOkRXAAAWWMHFzs4pJQTEPwRkUYFl1KzrB18KnR4qHUCjdpnXNjQ+1LhwgQcb4TG3543zzquuFGbYP9qv/WHnP9UzzGPCpIdXMZIT/t3d/lAmWTmTerfVUp6jYks11uGevOc6c7955r52SmCC5AewQUAkDVecPFGOOIDiRqpsDqKKeWNpjjhJHa+VeXvS0WlCiPuNssqg3CiywkkZV74CAWXuG1ZwUUtGzM/FHSi80NVJpOLdMTlpZdektGjR5spV73BpWagdLbCQsbV1PVSSgWSrtKvxp0Oh5WgVHsQUtQ6boCJLtfcIrgA6RFcAABZo4OLGonoUiZlKkjEBBcdauxwkXbExRpVMRUa8fCW0UHBCzsqwJRJdXR5e3TE2WZFfSMu5U452yv1j1/tw92mt3y1s0y1vc2UKu7goh6D66+/3g8w6YPLcul3efC49RzitKlA4j2OJpgM7eXcNmHCvf1JynqhYOGHGhNK+vd2lnPDiV7fWi8aXPzpN9Q6Zpkh7m1VnftPsvatwstcZzocfNRxeCMy/jb0ct56XeVlf3/hIrgA6RFcAABZs+S718y1HmYEJBQyVIWDha76govp+OmyR0SsMKFuV9indNnL2MEn0xEXHVxi5jthpswJPP6xho47si+nJk2aJLfffnvR1QUXXBB63E4++WT57LN5GY64hEcy7DDiBw5vNCQy4pI+uATrhJbx9xUNLkEQUft0Q0f4dnjfccFFhRt7m6nrX9V1kD/PLoILkB7BBQCQNa9de0So06pGHkIhRVcDp4r5AcAJA97IjBc6zE/7+pkghNijLva0KSu4eJUyguOHHvd2dBuh5fV8b9+p9fBbY2I79oVe0eBy5JFHZh5c1G1rXV12ULEDRig81BdcgnXs0Ra31LxocPECTXOCizoOb4TFG5UJ77tdu0fdbUWK4AKkR3ABAGRNcHF+uhGXmAqNXFhlBw0VEvRtMwoTCSDRcsNMJDT520sTnFRg8oJLJJR4YcYLLuqnPT+ubv2/yeZRKS7eqWIdO3aUV199Vbdlfo1LEBrCy5lwMMRatr7gok7tigku4REXryLBRa1rnZbW2OCilgvtw2wvtH49RXAB0iO4AACyJl1w0UEiciqVX2mCizuqYoKKU3ZgCE4F6y13mvlue4VeXs9XQcUeMdHTarkg0NQ74qLL23/kmpjQfGdepVpP7TvYX7F+HLIKLl5g8dT/qWLWaIQKDNb1JPZohRcGVPhwQ0lkPRUmvPWcIOEGi+hoirWOU+421TJBmz/C41RmwcUck7dNte/QdTDeeuH9lA8124oUwQVIj+ACAMga++OQ4ysIIvVW+Usp14zo8BMZMQmFDB1MoqemucuW9r5TL2+Hn9RyQsc79Z/+pUptIzg9zezPDzzBsd36/OfmUUGyPw45WUVwAdIjuAAAsqbh4FI8xRdQBggumRfBBUiP4AIAyBqCS1AElwDBJfMiuADpEVwAAFlDcAmK4BIguGReBBcgPYILACBrVGedCgougkvmRXAB0iO4AACAnCK4ZF4EFyA9ggsAAMgpgkvmRXAB0iO4AACAnCK4ZF4EFyA9ggsAAMipUaMWyYwZK2M76lS4vvnmZ/n666XmkQNgI7gAAICcmjZtmYwbtzS2o04FNWvWaifkLZYff1xhHjkANoILAADIuUmT6vTIy4QJdTJxYp3U1FBeqcdj/Pil+pS62tpl5hEDEEVwAQAALWLRopUyc+Zy+eEHKlqzZy+XJUtWmkcKQByCCwAAAIDEI7gAAAAASDyCCwAAAIDEI7gAAAAASDyCCwAAAIDEI7gAAAAASDyCCwAAAIDEI7gAAAAASDyCCwAAAIDEI7gAAAAASDyCCwAAAIDEI7gAAAAASDyCCwAAAIDEI7gAAAAASDyCCwAAAIDEI7gAAAAASDyCCwAAAIDEI7gAAAAASDyCCwAAAIDEI7gAAAAASDyCCwAAAIDEI7gAAAAASDyCCwAAAIDEI7gAAAAASDyCCwAAAIDEI7gAAAAASDyCCwAAAIDEI7gAAAAASDyCCwAAAICEE/l/v7XfcYx/lA8AAAAASUVORK5CYII=;fontSize=24;" parent="1" vertex="1">
                    <mxGeometry x="2290" y="310.64" width="414" height="278.72" as="geometry"/>
                </mxCell>
                <mxCell id="66" value="SE3 interpolation" style="text;html=1;align=center;verticalAlign=middle;resizable=0;points=[];autosize=1;strokeColor=none;fillColor=none;fontSize=24;" vertex="1" parent="1">
                    <mxGeometry x="340" y="530" width="210" height="40" as="geometry"/>
                </mxCell>
                <mxCell id="78" style="edgeStyle=none;html=1;entryX=0;entryY=0.5;entryDx=0;entryDy=0;entryPerimeter=0;fontSize=24;" edge="1" parent="1" source="3" target="7">
                    <mxGeometry relative="1" as="geometry"/>
                </mxCell>
                <mxCell id="79" style="edgeStyle=none;html=1;fontSize=24;" edge="1" parent="1" source="3">
                    <mxGeometry relative="1" as="geometry">
                        <mxPoint x="330" y="340" as="targetPoint"/>
                    </mxGeometry>
                </mxCell>
                <mxCell id="3" value="FATS-LIO2" style="rounded=1;whiteSpace=wrap;html=1;fontSize=24;arcSize=43;" parent="1" vertex="1">
                    <mxGeometry x="80" y="230" width="210" height="340" as="geometry"/>
                </mxCell>
            </root>
        </mxGraphModel>
    </diagram>
</mxfile>